<svg version="1.1" id="Layer_1" xmlns="http://www.w3.org/2000/svg" xmlns:xlink="http://www.w3.org/1999/xlink" x="0px" y="0px"
	 width="100%" viewBox="0 0 2560 1600" enable-background="new 0 0 2560 1600" xml:space="preserve">
<path fill="#F4EB90" opacity="1.000000" stroke="none" 
	d="
M308.674438,1.380767 
	C1058.032471,1.000000 1807.064941,1.005509 2556.097412,0.870012 
	C2560.588379,0.869200 2561.103027,2.120821 2561.093994,6.095864 
	C2560.958984,66.751236 2561.000000,127.407005 2561.000000,188.531342 
	C2559.530273,190.603256 2557.649902,191.036255 2555.560059,190.997360 
	C2553.561279,190.960175 2551.561035,190.997971 2549.561279,190.997971 
	C1806.344727,190.998322 1063.128296,190.999481 319.911743,190.963989 
	C316.455475,190.963821 312.883423,191.710281 309.137329,189.767517 
	C307.144867,187.839615 307.512543,185.761658 307.512024,183.798294 
	C307.496735,124.890259 307.496826,65.982224 307.514618,7.074188 
	C307.515167,5.275943 307.140808,3.384656 308.674438,1.380767 
z"/>
<path fill="#F4EB91" opacity="1.000000" stroke="none" 
	d="
M2560.614258,1102.680664 
	C2561.000000,1128.355957 2561.000000,1153.712036 2561.000000,1179.533936 
	C2559.736084,1181.320068 2558.126709,1181.541870 2556.406006,1181.504272 
	C2554.740479,1181.467896 2553.073242,1181.499756 2551.406738,1181.499756 
	C1806.965698,1181.500000 1062.524780,1181.500610 318.083740,1181.476929 
	C315.280457,1181.476929 312.426483,1181.946777 309.245636,1180.704468 
	C307.537384,1179.116455 307.503845,1177.453735 307.503540,1175.774170 
	C307.499329,1152.843262 307.492218,1129.912476 307.509003,1106.981567 
	C307.509857,1105.815308 307.530701,1104.651001 308.355408,1103.154785 
	C309.828186,1101.612793 311.313416,1101.508423 312.836456,1101.506470 
	C314.502777,1101.504395 316.169128,1101.500488 317.835480,1101.500488 
	C1062.525757,1101.499878 1807.215942,1101.498901 2551.906250,1101.534424 
	C2554.681396,1101.534668 2557.585938,1100.805542 2560.614258,1102.680664 
z"/>
<path fill="#F4EB90" opacity="1.000000" stroke="none" 
	d="
M2560.614258,1532.680664 
	C2561.000000,1554.662598 2560.953857,1576.325562 2561.063477,1597.987549 
	C2561.075928,1600.457397 2560.547607,1601.491211 2558.009766,1601.017822 
	C2557.365723,1600.897705 2556.680176,1601.000000 2556.013672,1601.000000 
	C1807.319824,1601.000000 1058.625977,1601.000000 309.466034,1601.000000 
	C307.347717,1599.460205 307.499146,1597.437500 307.499298,1595.447266 
	C307.500763,1576.413574 307.497223,1557.380005 307.503845,1538.346313 
	C307.504547,1536.366211 307.320587,1534.333740 309.290466,1532.436523 
	C313.092072,1531.113159 316.622040,1531.220459 320.073425,1531.309570 
	C323.065674,1531.386963 326.063568,1531.488892 329.057648,1531.489014 
	C1070.006592,1531.500488 1810.955566,1531.499023 2551.904541,1531.534546 
	C2554.680176,1531.534668 2557.585205,1530.805664 2560.614258,1532.680664 
z"/>
<path fill="#F4EB91" opacity="1.000000" stroke="none" 
	d="
M2560.624023,192.667847 
	C2561.000000,215.020889 2561.000000,237.041794 2561.000000,259.531342 
	C2559.757324,261.367737 2558.135742,261.538696 2556.419922,261.505493 
	C2554.587891,261.470062 2552.754395,261.499847 2550.921387,261.499847 
	C1807.062256,261.500000 1063.203125,261.500214 319.343994,261.492035 
	C316.501282,261.492004 313.651520,261.662903 310.329010,261.155334 
	C308.159760,260.161865 307.522369,258.705658 307.526001,256.911957 
	C307.568176,236.088486 307.312439,215.264343 307.665863,194.441727 
	C307.671173,194.127228 307.882721,193.816238 308.278809,193.081055 
	C310.007782,191.328201 311.778809,191.022476 313.659668,191.015945 
	C315.659546,191.008987 317.659424,191.002319 319.659302,191.002319 
	C1063.125122,191.001617 1806.590820,191.000137 2550.056641,191.047119 
	C2553.464111,191.047333 2557.093262,190.040512 2560.624023,192.667847 
z"/>
<path fill="#F4EB91" opacity="1.000000" stroke="none" 
	d="
M2560.624023,472.667755 
	C2561.000000,495.020905 2561.000000,517.041809 2561.000000,539.531372 
	C2559.757080,541.368042 2558.135254,541.541687 2556.419189,541.505066 
	C2554.753662,541.469543 2553.086182,541.499878 2551.419678,541.499878 
	C1806.949341,541.500000 1062.479126,541.500610 318.008820,541.477295 
	C315.212952,541.477234 312.371063,541.933655 309.189026,540.752930 
	C307.573517,539.330750 307.506836,537.839233 307.506683,536.321350 
	C307.504944,516.192566 307.475098,496.063812 307.522919,475.935059 
	C307.524902,475.095764 307.637360,474.278046 308.282440,473.089844 
	C313.093231,470.415436 318.063354,471.977509 322.753265,471.044647 
	C324.037201,470.789246 325.412201,471.001801 326.745422,471.001801 
	C1068.015869,471.001678 1809.286255,471.000336 2550.556641,471.043152 
	C2553.802246,471.043365 2557.263916,470.101074 2560.624023,472.667755 
z"/>
<path fill="#F4EB91" opacity="1.000000" stroke="none" 
	d="
M2560.614258,542.680664 
	C2561.000000,565.022644 2561.000000,587.045227 2561.000000,609.533936 
	C2559.736572,611.320190 2558.127197,611.538635 2556.406738,611.504700 
	C2554.574707,611.468689 2552.740967,611.499756 2550.907959,611.499756 
	C1806.890747,611.500061 1062.873657,611.500305 318.856476,611.489502 
	C316.183350,611.489441 313.499969,611.699524 310.355713,611.121216 
	C308.043884,609.960266 307.518738,608.292725 307.518158,606.348145 
	C307.512085,586.058960 307.436981,565.769714 307.563568,545.480652 
	C307.567719,544.811829 307.796204,544.175232 308.360535,543.147827 
	C309.836548,541.608521 311.322845,541.508484 312.845215,541.506531 
	C314.511536,541.504333 316.177887,541.500366 317.844208,541.500366 
	C1062.531494,541.499878 1807.218750,541.499084 2551.906006,541.534485 
	C2554.681152,541.534607 2557.585693,540.805786 2560.614258,542.680664 
z"/>
<path fill="#F4EB91" opacity="1.000000" stroke="none" 
	d="
M2560.624023,752.667847 
	C2561.000000,775.020874 2561.000000,797.041809 2561.000000,819.531372 
	C2559.757324,821.367615 2558.135986,821.538696 2556.420166,821.505493 
	C2554.588135,821.469971 2552.754395,821.499878 2550.921387,821.499878 
	C1807.062012,821.500000 1063.202637,821.500183 319.343353,821.492065 
	C316.500671,821.492004 313.650940,821.662903 310.328583,821.155273 
	C308.159576,820.161621 307.522369,818.705383 307.526001,816.911682 
	C307.568176,796.088318 307.312531,775.264282 307.665833,754.441772 
	C307.671204,754.127258 307.882721,753.816284 308.278870,753.081177 
	C310.011902,751.339294 311.779236,751.021362 313.661255,751.015747 
	C315.661133,751.009827 317.661011,751.002380 319.660889,751.002380 
	C1063.126099,751.001587 1806.591431,751.000122 2550.056641,751.047119 
	C2553.464111,751.047363 2557.093262,750.040527 2560.624023,752.667847 
z"/>
<path fill="#F4EB91" opacity="1.000000" stroke="none" 
	d="
M2560.624023,1032.667847 
	C2561.000000,1055.020874 2561.000000,1077.041870 2561.000000,1099.531372 
	C2559.757080,1101.367920 2558.135254,1101.541626 2556.419189,1101.505005 
	C2554.753662,1101.469360 2553.086182,1101.499756 2551.419678,1101.499756 
	C1806.948853,1101.499878 1062.478149,1101.500732 318.007324,1101.477417 
	C315.211365,1101.477295 312.369232,1101.934204 309.187439,1100.751953 
	C307.572693,1099.328979 307.506866,1097.837280 307.506744,1096.319580 
	C307.505005,1076.191406 307.475098,1056.063354 307.522949,1035.935181 
	C307.524933,1035.095947 307.637360,1034.278198 308.282318,1033.090088 
	C313.092957,1030.415161 318.063110,1031.977295 322.752991,1031.044434 
	C324.036926,1030.789185 325.411957,1031.001831 326.745178,1031.001831 
	C1068.015869,1031.001831 1809.286499,1031.000366 2550.557129,1031.043213 
	C2553.802734,1031.043335 2557.264160,1030.101074 2560.624023,1032.667847 
z"/>
<path fill="#F4EB91" opacity="1.000000" stroke="none" 
	d="
M2560.615234,1182.678711 
	C2561.000000,1205.021973 2561.000000,1227.044067 2561.000000,1249.532959 
	C2559.741943,1251.332764 2558.129639,1251.538696 2556.410400,1251.504883 
	C2554.578369,1251.468750 2552.744629,1251.499878 2550.911621,1251.499878 
	C1806.888916,1251.500000 1062.866211,1251.500244 318.843567,1251.489868 
	C316.172485,1251.489746 313.491730,1251.694214 310.347656,1251.129272 
	C308.021484,1249.977051 307.514343,1248.306152 307.514313,1246.360107 
	C307.513794,1226.065186 307.440552,1205.770264 307.558533,1185.475342 
	C307.562408,1184.805298 307.780457,1184.167725 308.345581,1183.137939 
	C309.820862,1181.585327 311.312744,1181.508545 312.832336,1181.505981 
	C314.498657,1181.503296 316.165009,1181.500244 317.831360,1181.500244 
	C1062.523804,1181.499878 1807.216309,1181.499146 2551.908691,1181.534912 
	C2554.682861,1181.535034 2557.587402,1180.800537 2560.615234,1182.678711 
z"/>
<path fill="#F4EB91" opacity="1.000000" stroke="none" 
	d="
M2560.624023,1392.667725 
	C2561.000000,1415.020874 2561.000000,1437.041870 2561.000000,1459.531372 
	C2559.757324,1461.367676 2558.135986,1461.538696 2556.420166,1461.505493 
	C2554.588135,1461.470093 2552.754395,1461.499878 2550.921387,1461.499878 
	C1807.062134,1461.500000 1063.202881,1461.500244 319.343719,1461.492065 
	C316.500977,1461.491943 313.651184,1461.662842 310.328735,1461.155273 
	C308.159790,1460.161743 307.522339,1458.705566 307.525970,1456.911865 
	C307.568085,1436.088623 307.312653,1415.264648 307.665741,1394.442261 
	C307.671082,1394.127930 307.882568,1393.816895 308.278564,1393.081665 
	C310.011353,1391.339478 311.778625,1391.021484 313.660675,1391.015869 
	C315.660553,1391.009888 317.660431,1391.002441 319.660309,1391.002441 
	C1063.125732,1391.001587 1806.591064,1391.000122 2550.056396,1391.047119 
	C2553.463867,1391.047363 2557.093018,1390.040649 2560.624023,1392.667725 
z"/>
<path fill="#F4EB91" opacity="1.000000" stroke="none" 
	d="
M2560.615967,822.677185 
	C2561.000000,845.022034 2561.000000,867.044006 2561.000000,889.533020 
	C2559.746338,891.343445 2558.130859,891.549377 2556.412354,891.503845 
	C2555.080322,891.468506 2553.745850,891.499878 2552.412598,891.499878 
	C1810.757812,891.499878 1069.102905,891.499207 327.448120,891.522156 
	C323.135193,891.522278 318.827240,890.937439 314.507812,891.474548 
	C312.615173,891.709839 310.856445,891.209839 308.923584,889.726318 
	C307.153992,887.661682 307.515503,885.598938 307.513153,883.632446 
	C307.491150,865.328918 307.492676,847.025391 307.508667,828.721863 
	C307.510834,826.260193 307.086853,823.614441 310.283936,821.911377 
	C312.911743,821.364258 315.083435,821.505737 317.246429,821.505737 
	C1062.467651,821.499756 1807.688965,821.499268 2552.910156,821.528992 
	C2555.356689,821.529053 2557.929443,820.886841 2560.615967,822.677185 
z"/>
<path fill="#F4EB91" opacity="1.000000" stroke="none" 
	d="
M2560.615967,262.677185 
	C2561.000000,285.022003 2561.000000,307.044037 2561.000000,329.533020 
	C2559.746338,331.343414 2558.130859,331.549347 2556.412354,331.503815 
	C2555.080322,331.468414 2553.745850,331.499908 2552.412598,331.499908 
	C1810.757935,331.500000 1069.103271,331.499115 327.448639,331.522095 
	C323.135712,331.522217 318.827789,330.937317 314.508301,331.474548 
	C312.615784,331.709900 310.856812,331.210236 308.923981,329.726593 
	C307.154083,327.662140 307.515472,325.599396 307.513123,323.632874 
	C307.491150,305.329224 307.492676,287.025574 307.508667,268.721924 
	C307.510834,266.260254 307.086792,263.614502 310.283813,261.911346 
	C312.911652,261.364410 315.083313,261.505737 317.246307,261.505737 
	C1062.467529,261.499847 1807.688843,261.499298 2552.910156,261.528992 
	C2555.356689,261.529083 2557.929443,260.886719 2560.615967,262.677185 
z"/>
<path fill="#F4EB91" opacity="1.000000" stroke="none" 
	d="
M2560.615967,1462.677246 
	C2561.000000,1485.021973 2561.000000,1507.044067 2561.000000,1529.532959 
	C2559.746338,1531.343506 2558.130859,1531.542236 2556.412354,1531.504883 
	C2554.746826,1531.468628 2553.079346,1531.499878 2551.412842,1531.499878 
	C1810.257568,1531.500000 1069.102295,1531.498901 327.946930,1531.526123 
	C323.467316,1531.526367 318.992401,1530.926147 314.506744,1531.475586 
	C312.613983,1531.707275 310.856079,1531.209473 308.923706,1529.726318 
	C307.154053,1527.661743 307.515503,1525.598999 307.513123,1523.632446 
	C307.491150,1505.328857 307.492676,1487.025391 307.508667,1468.721802 
	C307.510834,1466.260132 307.086975,1463.614380 310.283966,1461.911255 
	C312.911865,1461.364502 315.083527,1461.505737 317.246521,1461.505737 
	C1062.467773,1461.499756 1807.688965,1461.499390 2552.910156,1461.529175 
	C2555.356689,1461.529297 2557.929443,1460.886597 2560.615967,1462.677246 
z"/>
<path fill="#F4EB91" opacity="1.000000" stroke="none" 
	d="
M2560.624023,962.667847 
	C2561.000000,984.687561 2561.000000,1006.375061 2561.000000,1028.531250 
	C2559.530518,1030.603149 2557.650146,1031.024780 2555.560303,1030.998657 
	C2552.895020,1030.965454 2550.228271,1030.997681 2547.562256,1030.997681 
	C1807.715698,1030.998291 1067.869263,1031.002075 328.022736,1030.933350 
	C321.882416,1030.932861 315.744263,1032.443481 309.174866,1030.746826 
	C307.565643,1029.317017 307.506683,1027.823975 307.506592,1026.307739 
	C307.505371,1006.182739 307.474792,986.057739 307.523010,965.932800 
	C307.525024,965.093628 307.638031,964.276123 308.282806,963.087891 
	C311.876831,960.528992 315.711090,961.794495 319.247192,961.058044 
	C320.687164,960.758179 322.237030,961.001892 323.736908,961.001892 
	C1066.010254,961.001709 1808.283569,961.000183 2550.556885,961.043091 
	C2553.802490,961.043274 2557.264160,960.101257 2560.624023,962.667847 
z"/>
<path fill="#F4EB91" opacity="1.000000" stroke="none" 
	d="
M2560.624023,402.667847 
	C2561.000000,424.687561 2561.000000,446.375122 2561.000000,468.531342 
	C2559.530518,470.603180 2557.650146,471.027191 2555.560303,470.998444 
	C2553.061523,470.964020 2550.561523,470.997803 2548.062012,470.997833 
	C1808.048950,470.998383 1068.035767,471.001984 328.022705,470.933350 
	C321.882324,470.932770 315.744080,472.443451 309.174622,470.746826 
	C307.565430,469.316925 307.506683,467.823761 307.506592,466.307556 
	C307.505310,446.182678 307.474854,426.057800 307.523010,405.932953 
	C307.525024,405.093811 307.637970,404.276306 308.282715,403.088013 
	C311.876709,400.528900 315.711029,401.794617 319.247070,401.058044 
	C320.687042,400.758087 322.236908,401.001892 323.736786,401.001892 
	C1066.010132,401.001709 1808.283569,401.000305 2550.556885,401.043121 
	C2553.802490,401.043304 2557.264160,400.101013 2560.624023,402.667847 
z"/>
<path fill="#F4EB91" opacity="1.000000" stroke="none" 
	d="
M2560.619629,892.674683 
	C2561.000000,914.687561 2561.000000,936.375122 2561.000000,958.531372 
	C2559.530273,960.603394 2557.649658,961.024841 2555.559814,960.998718 
	C2552.894287,960.965393 2550.227539,960.997864 2547.561279,960.997864 
	C1807.665894,960.998352 1067.770508,960.997864 327.875031,961.010986 
	C323.552185,961.011047 319.222046,960.761230 314.907654,961.441711 
	C312.905426,961.757446 310.908142,961.478699 308.857117,959.764038 
	C307.098328,957.684814 307.519104,955.619202 307.516174,953.661316 
	C307.488892,935.377258 307.489166,917.093262 307.514618,898.809204 
	C307.517548,896.689697 307.074127,894.433655 309.225098,892.368408 
	C313.043549,891.136230 316.572144,891.233154 320.022339,891.298950 
	C322.842102,891.352661 325.676270,891.488098 328.502533,891.488159 
	C1069.641113,891.500244 1810.779785,891.498962 2551.918457,891.535950 
	C2554.691162,891.536072 2557.596191,890.786560 2560.619629,892.674683 
z"/>
<path fill="#F4EB91" opacity="1.000000" stroke="none" 
	d="
M2560.619629,332.674713 
	C2561.000000,354.687561 2561.000000,376.375122 2561.000000,398.531342 
	C2559.530273,400.603363 2557.649658,401.027161 2555.559814,400.998413 
	C2553.061035,400.964020 2550.560791,400.997864 2548.061279,400.997864 
	C1808.000122,400.998352 1067.938843,400.997803 327.877655,401.010986 
	C323.554810,401.011047 319.224640,400.760590 314.910248,401.441437 
	C312.906982,401.757599 310.908539,401.479431 308.856812,399.763672 
	C307.098328,397.684357 307.519104,395.618805 307.516174,393.660889 
	C307.488892,375.377106 307.489166,357.093231 307.514618,338.809418 
	C307.517578,336.689941 307.074127,334.433899 309.224976,332.368591 
	C313.043335,331.136139 316.571930,331.233246 320.022156,331.298950 
	C322.841888,331.352692 325.676086,331.488190 328.502350,331.488220 
	C1069.641113,331.500336 1810.779907,331.499054 2551.918701,331.535980 
	C2554.691406,331.536133 2557.596436,330.786743 2560.619629,332.674713 
z"/>
<path fill="#F4EB91" opacity="1.000000" stroke="none" 
	d="
M2560.624023,1322.667847 
	C2561.000000,1344.687622 2561.000000,1366.375122 2561.000000,1388.531372 
	C2559.530273,1390.603882 2557.649414,1391.032837 2555.559326,1390.997803 
	C2553.393555,1390.961548 2551.226318,1390.997803 2549.059570,1390.997803 
	C1805.074707,1390.998413 1061.089966,1390.998535 317.105133,1390.984619 
	C314.612762,1390.984497 312.103607,1391.251709 309.181366,1390.498779 
	C307.552521,1389.104004 307.506409,1387.611938 307.506439,1386.101440 
	C307.506531,1366.032959 307.472809,1345.964355 307.524506,1325.895874 
	C307.526642,1325.058472 307.649384,1324.244873 308.293823,1323.059814 
	C310.032715,1321.322021 311.803955,1321.019043 313.684906,1321.015015 
	C315.684723,1321.010742 317.684601,1321.002441 319.684448,1321.002441 
	C1063.141968,1321.001709 1806.599365,1321.000122 2550.056885,1321.047241 
	C2553.464111,1321.047485 2557.093262,1320.040527 2560.624023,1322.667847 
z"/>
<path fill="#F4EB91" opacity="1.000000" stroke="none" 
	d="
M2560.624023,682.667786 
	C2561.000000,704.687561 2561.000000,726.375122 2561.000000,748.531372 
	C2559.530273,750.603882 2557.649170,751.036255 2555.559082,750.997375 
	C2553.560059,750.960205 2551.559570,750.997986 2549.559570,750.997986 
	C1805.407959,750.998535 1061.256348,750.998535 317.104828,750.984558 
	C314.612518,750.984558 312.103424,751.251709 309.181274,750.498657 
	C307.552338,749.103821 307.506409,747.611816 307.506409,746.101257 
	C307.506531,726.032715 307.472778,705.964172 307.524475,685.895630 
	C307.526611,685.058289 307.649353,684.244690 308.293884,683.059692 
	C310.032898,681.321899 311.804138,681.018860 313.685089,681.015015 
	C315.684906,681.010864 317.684784,681.002380 319.684631,681.002380 
	C1063.141846,681.001587 1806.599121,681.000122 2550.056396,681.047119 
	C2553.463867,681.047363 2557.093018,680.040588 2560.624023,682.667786 
z"/>
<path fill="#F4EB91" opacity="1.000000" stroke="none" 
	d="
M2560.619629,1252.674683 
	C2561.000000,1274.687622 2561.000000,1296.375122 2561.000000,1318.531372 
	C2559.530273,1320.603271 2557.649902,1321.036133 2555.560059,1320.997314 
	C2553.561279,1320.960327 2551.561035,1320.998047 2549.561279,1320.998047 
	C1806.354858,1320.998413 1063.148438,1320.999390 319.942078,1320.964111 
	C316.489685,1320.963867 312.923553,1321.705566 309.174683,1319.785400 
	C307.152954,1317.874390 307.514130,1315.793579 307.511993,1313.826782 
	C307.491913,1295.333130 307.493500,1276.839355 307.509399,1258.345703 
	C307.511078,1256.372070 307.195343,1254.298950 309.209106,1252.380371 
	C312.368286,1251.060059 315.231842,1251.521240 318.041473,1251.521118 
	C718.686096,1251.498901 1119.330688,1251.500000 1519.975342,1251.500000 
	C1864.123047,1251.500000 2208.270752,1251.498169 2552.418457,1251.533081 
	C2555.027100,1251.533447 2557.766846,1250.827515 2560.619629,1252.674683 
z"/>
<path fill="#F4EB91" opacity="1.000000" stroke="none" 
	d="
M2560.619629,612.674683 
	C2561.000000,634.687561 2561.000000,656.375122 2561.000000,678.531372 
	C2559.530518,680.603394 2557.649902,681.036072 2555.560059,680.997314 
	C2553.561279,680.960144 2551.561035,680.997925 2549.561279,680.997925 
	C1806.354248,680.998413 1063.147217,680.999512 319.940094,680.963989 
	C316.487823,680.963867 312.921692,681.705811 309.173279,679.784546 
	C307.152679,677.872925 307.514130,675.792114 307.511993,673.825439 
	C307.491882,655.332153 307.493500,636.838928 307.509399,618.345642 
	C307.511078,616.372009 307.195435,614.299011 309.208984,612.380371 
	C312.368164,611.060242 315.231720,611.521301 318.041351,611.521179 
	C720.019287,611.499023 1121.997314,611.500000 1523.975220,611.500000 
	C1866.789673,611.500000 2209.604248,611.498230 2552.418701,611.533203 
	C2555.027344,611.533508 2557.766846,610.827454 2560.619629,612.674683 
z"/>
<path fill="#F4EB90" opacity="1.000000" stroke="none" 
	d="
M1.376286,189.332428 
	C1.000000,127.723434 1.047939,66.446739 0.884930,5.170606 
	C0.874785,1.357099 1.924237,0.915716 5.321920,0.919387 
	C98.568764,1.020153 191.815735,1.000000 285.531342,1.000000 
	C287.722809,2.531070 287.498657,4.586041 287.498718,6.579150 
	C287.500458,65.731239 287.502411,124.883324 287.491119,184.035416 
	C287.490845,185.523666 287.675415,187.044724 286.728882,188.885880 
	C284.335968,190.981461 281.835632,190.997772 279.321899,190.997818 
	C188.862076,190.999847 98.402260,191.001770 7.942443,190.986984 
	C5.797781,190.986633 3.567005,191.266266 1.376286,189.332428 
z"/>
<path fill="#F4EB91" opacity="1.000000" stroke="none" 
	d="
M1.380580,1180.325439 
	C1.000000,1154.645752 1.000000,1129.291504 1.000000,1103.468628 
	C2.530951,1101.277344 4.585663,1101.501343 6.578673,1101.501343 
	C98.048851,1101.499390 189.519028,1101.498413 280.989197,1101.508301 
	C282.478088,1101.508545 283.998260,1101.330566 285.846313,1102.262695 
	C287.444275,1103.703003 287.493500,1105.197998 287.493561,1106.712402 
	C287.494843,1130.159424 287.524597,1153.606445 287.477600,1177.053467 
	C287.475922,1177.892212 287.366882,1178.710205 286.725037,1179.899536 
	C284.781036,1181.868530 282.701935,1181.486450 280.740326,1181.486816 
	C189.518646,1181.502441 98.296959,1181.502197 7.075278,1181.485352 
	C5.276572,1181.484985 3.384656,1181.859863 1.380580,1180.325439 
z"/>
<path fill="#F4EB90" opacity="1.000000" stroke="none" 
	d="
M286.326050,1600.618530 
	C192.449509,1601.000000 98.898994,1600.982300 5.348582,1601.072998 
	C2.033757,1601.076294 0.822406,1600.760010 0.872579,1596.857422 
	C1.142174,1575.886963 1.000000,1554.911133 1.000000,1533.468628 
	C3.008772,1530.843384 5.651246,1531.523315 8.079332,1531.522461 
	C95.064667,1531.495483 182.050003,1531.498535 269.035339,1531.503540 
	C274.497803,1531.503784 279.984833,1530.737183 285.837708,1532.258301 
	C287.588684,1533.840820 287.494141,1535.532104 287.494873,1537.191528 
	C287.503754,1556.772705 287.503693,1576.353760 287.492371,1595.934937 
	C287.491516,1597.416504 287.659668,1598.945679 286.326050,1600.618530 
z"/>
<path fill="#F4EB91" opacity="1.000000" stroke="none" 
	d="
M1.380522,1100.325439 
	C1.000000,1077.979126 1.000000,1055.958130 1.000000,1033.468628 
	C3.036290,1030.685669 5.784753,1031.006958 8.436796,1031.006226 
	C39.253498,1030.997803 70.070206,1031.002197 100.886909,1031.001953 
	C155.357513,1031.001465 209.828140,1030.979248 264.298706,1031.030762 
	C270.942963,1031.036987 277.589783,1031.353271 284.710205,1031.852417 
	C286.883545,1032.857300 287.479279,1034.332764 287.475525,1036.118042 
	C287.431702,1056.927734 287.684998,1077.738037 287.336761,1098.546875 
	C287.331512,1098.861084 287.119934,1099.171997 286.721497,1099.904297 
	C284.774628,1101.869629 282.695679,1101.486450 280.734253,1101.486816 
	C189.514359,1101.502563 98.294464,1101.502197 7.074577,1101.485352 
	C5.276057,1101.484985 3.384339,1101.859741 1.380522,1100.325439 
z"/>
<path fill="#F4EB91" opacity="1.000000" stroke="none" 
	d="
M1.380497,1250.325439 
	C1.000000,1227.979126 1.000000,1205.958130 1.000000,1183.468628 
	C2.530898,1181.277344 4.585571,1181.501343 6.578539,1181.501343 
	C98.046829,1181.499268 189.515106,1181.498413 280.983398,1181.508179 
	C282.472260,1181.508301 283.992340,1181.330688 285.841339,1182.260742 
	C287.441528,1183.698364 287.493439,1185.192505 287.493530,1186.707031 
	C287.494781,1206.824097 287.524780,1226.941162 287.477386,1247.058228 
	C287.475403,1247.896851 287.365173,1248.714478 286.722321,1249.903320 
	C284.776184,1251.869385 282.697205,1251.486450 280.735718,1251.486816 
	C189.515640,1251.502563 98.295555,1251.502197 7.075472,1251.485352 
	C5.276661,1251.484985 3.384531,1251.860229 1.380497,1250.325439 
z"/>
<path fill="#F4EB91" opacity="1.000000" stroke="none" 
	d="
M1.380506,610.325317 
	C1.000000,587.979126 1.000000,565.958191 1.000000,543.468628 
	C2.530894,541.277405 4.585585,541.501343 6.578538,541.501282 
	C98.046715,541.499512 189.514893,541.498291 280.983063,541.508179 
	C282.471924,541.508301 283.992035,541.330566 285.841064,542.260620 
	C287.441559,543.698181 287.493408,545.192383 287.493500,546.706848 
	C287.494751,566.824036 287.524750,586.941223 287.477356,607.058350 
	C287.475403,607.896973 287.365234,608.714600 286.722290,609.903381 
	C284.776154,611.869446 282.697144,611.486450 280.735687,611.486816 
	C189.515594,611.502441 98.295509,611.502258 7.075418,611.485474 
	C5.276625,611.485168 3.384509,611.860107 1.380506,610.325317 
z"/>
<path fill="#F4EB91" opacity="1.000000" stroke="none" 
	d="
M1.380499,540.325317 
	C1.000000,517.979126 1.000000,495.958221 1.000000,473.468658 
	C3.036248,470.685577 5.784750,471.006897 8.436763,471.006165 
	C39.253441,470.997833 70.070122,471.002197 100.886803,471.001892 
	C155.357361,471.001373 209.827942,470.979401 264.298462,471.030670 
	C270.942719,471.036926 277.589539,471.353241 284.709930,471.852386 
	C286.883453,472.857025 287.479218,474.332397 287.475464,476.117767 
	C287.431671,496.927551 287.685028,517.737976 287.336731,538.546936 
	C287.331451,538.861206 287.119934,539.171997 286.721497,539.904419 
	C284.774567,541.869690 282.695618,541.486450 280.734192,541.486816 
	C189.514359,541.502441 98.294525,541.502258 7.074691,541.485474 
	C5.276123,541.485168 3.384260,541.859985 1.380499,540.325317 
z"/>
<path fill="#F4EB91" opacity="1.000000" stroke="none" 
	d="
M1.377879,330.323517 
	C1.000000,307.979095 1.000000,285.958221 1.000000,263.468658 
	C3.006986,260.844543 5.647473,261.523193 8.073977,261.522430 
	C95.330795,261.495483 182.587646,261.479126 269.844391,261.556824 
	C274.637085,261.561096 279.457001,260.133881 284.713806,261.835846 
	C286.877350,262.852478 287.478363,264.324432 287.475403,266.109131 
	C287.440552,286.905609 287.667480,307.702637 287.350159,328.498383 
	C287.345367,328.813293 287.138947,329.125092 286.749023,329.859985 
	C281.086731,332.816162 275.350586,331.358826 269.849030,331.373596 
	C198.742371,331.564606 127.635040,331.499969 56.527878,331.499969 
	C40.208202,331.499939 23.888493,331.515320 7.568893,331.480042 
	C5.611111,331.475800 3.544710,331.945251 1.377879,330.323517 
z"/>
<path fill="#F4EB91" opacity="1.000000" stroke="none" 
	d="
M1.377895,890.323486 
	C1.000000,867.979126 1.000000,845.958191 1.000000,823.468628 
	C3.006948,820.844421 5.647484,821.523193 8.073958,821.522400 
	C95.330818,821.495544 182.587692,821.479126 269.844482,821.556824 
	C274.637207,821.561096 279.457123,820.133911 284.713928,821.835938 
	C286.877533,822.852600 287.478333,824.324646 287.475342,826.109253 
	C287.440491,846.905762 287.667572,867.702698 287.350128,888.498535 
	C287.345337,888.813477 287.138885,889.125244 286.748932,889.860107 
	C281.086639,892.816101 275.350494,891.358948 269.848938,891.373718 
	C198.742279,891.564636 127.634956,891.499939 56.527798,891.500000 
	C40.208122,891.500000 23.888412,891.515259 7.568812,891.479980 
	C5.611074,891.475769 3.544692,891.945312 1.377895,890.323486 
z"/>
<path fill="#F4EB91" opacity="1.000000" stroke="none" 
	d="
M1.377890,1530.323486 
	C1.000000,1507.979126 1.000000,1485.958130 1.000000,1463.468628 
	C3.006952,1460.844482 5.647525,1461.523315 8.073974,1461.522583 
	C95.330833,1461.495605 182.587723,1461.479248 269.844513,1461.556763 
	C274.637207,1461.561035 279.457123,1460.133789 284.713928,1461.835815 
	C286.877502,1462.852417 287.478394,1464.324463 287.475403,1466.109131 
	C287.440582,1486.905640 287.667450,1507.702515 287.350220,1528.498291 
	C287.345398,1528.813354 287.138977,1529.125122 286.749084,1529.860107 
	C281.086792,1532.816406 275.350647,1531.358765 269.849091,1531.373535 
	C198.742447,1531.564697 127.635117,1531.500000 56.527962,1531.500122 
	C40.208286,1531.500122 23.888578,1531.515259 7.568980,1531.479858 
	C5.611209,1531.475586 3.544732,1531.945557 1.377890,1530.323486 
z"/>
<path fill="#F4EB91" opacity="1.000000" stroke="none" 
	d="
M1.377295,820.323120 
	C1.000000,797.979126 1.000000,775.958191 1.000000,753.468628 
	C3.036457,750.685181 5.785316,751.006897 8.437549,751.006165 
	C39.257370,750.997742 70.077187,751.002136 100.897011,751.001831 
	C156.039505,751.001282 211.182098,750.957642 266.324371,751.065247 
	C272.282623,751.076843 278.297943,750.448425 284.706085,751.846680 
	C287.341400,753.078613 287.500061,755.044067 287.500122,757.114380 
	C287.500549,776.607300 287.501251,796.100281 287.497101,815.593201 
	C287.496735,817.271912 287.515778,818.951843 285.750366,820.528259 
	C280.876923,821.120850 276.412231,821.468262 271.951477,821.470276 
	C183.824402,821.510437 95.697311,821.502808 7.570234,821.481018 
	C5.611906,821.480530 3.544080,821.946350 1.377295,820.323120 
z"/>
<path fill="#F4EB91" opacity="1.000000" stroke="none" 
	d="
M1.377310,1460.323120 
	C1.000000,1437.979126 1.000000,1415.958130 1.000000,1393.468628 
	C3.036423,1390.685181 5.785268,1391.006958 8.437509,1391.006226 
	C39.257324,1390.997803 70.077141,1391.002075 100.896957,1391.001831 
	C156.039444,1391.001343 211.182007,1390.957642 266.324280,1391.065308 
	C272.282532,1391.076904 278.297821,1390.448364 284.705963,1391.846680 
	C287.341522,1393.078491 287.500061,1395.043945 287.500122,1397.114258 
	C287.500549,1416.607178 287.501251,1436.100220 287.497070,1455.593140 
	C287.496704,1457.271851 287.515900,1458.951782 285.750427,1460.528198 
	C280.876984,1461.120728 276.412323,1461.468262 271.951569,1461.470337 
	C183.824463,1461.510254 95.697357,1461.502930 7.570259,1461.480957 
	C5.611928,1461.480469 3.544106,1461.946411 1.377310,1460.323120 
z"/>
<path fill="#F4EB91" opacity="1.000000" stroke="none" 
	d="
M1.377308,260.323120 
	C1.000000,237.979111 1.000000,215.958206 1.000000,193.468658 
	C3.036648,190.685089 5.785736,191.007034 8.438114,191.006210 
	C35.761314,190.997681 63.084515,191.002060 90.407715,191.001907 
	C152.551331,191.001587 214.694946,190.996628 276.838562,191.019211 
	C279.316925,191.020111 281.846985,190.634369 284.729065,191.783905 
	C287.314880,193.074127 287.501312,195.026657 287.501190,197.102570 
	C287.499908,216.599030 287.501160,236.095490 287.497070,255.591949 
	C287.496735,257.270874 287.516266,258.951233 285.750610,260.528076 
	C280.877167,261.121094 276.412476,261.468323 271.951721,261.470367 
	C183.824570,261.510406 95.697411,261.502899 7.570254,261.480988 
	C5.611908,261.480499 3.544102,261.946320 1.377308,260.323120 
z"/>
<path fill="#F4EB91" opacity="1.000000" stroke="none" 
	d="
M1.372325,469.328674 
	C1.000000,447.312439 1.000000,425.624878 1.000000,403.468658 
	C3.033867,400.688293 5.779096,401.006927 8.428840,401.006104 
	C35.720589,400.997742 63.012341,401.002106 90.304092,401.001892 
	C151.211288,401.001404 212.118500,401.004059 273.025696,400.996582 
	C277.182037,400.996063 281.315704,401.205353 285.834137,402.257507 
	C287.862579,404.157867 287.484802,406.237946 287.487061,408.198700 
	C287.508636,426.993073 287.507050,445.787415 287.489655,464.581787 
	C287.487854,466.549927 287.819397,468.619293 285.862122,470.570374 
	C281.729584,472.227539 277.830139,471.568665 274.081848,471.390930 
	C255.613724,470.515076 237.144043,471.063202 218.678543,471.037201 
	C148.927765,470.939087 79.176788,471.004730 9.425889,470.974304 
	C6.819168,470.973145 4.046933,471.583649 1.372325,469.328674 
z"/>
<path fill="#F4EB91" opacity="1.000000" stroke="none" 
	d="
M1.372317,1029.328613 
	C1.000000,1007.312439 1.000000,985.624878 1.000000,963.468628 
	C3.033927,960.688477 5.779101,961.006958 8.428870,961.006104 
	C35.720612,960.997681 63.012356,961.002075 90.304100,961.001831 
	C151.211273,961.001343 212.118454,961.003906 273.025635,960.996582 
	C277.181976,960.996033 281.315643,961.205261 285.834076,962.257568 
	C287.862579,964.157837 287.484833,966.237976 287.487061,968.198669 
	C287.508636,986.992981 287.507050,1005.787231 287.489655,1024.581543 
	C287.487823,1026.549683 287.819427,1028.619019 285.862274,1030.570312 
	C281.729767,1032.227417 277.830322,1031.568604 274.082031,1031.390991 
	C255.613892,1030.515381 237.144196,1031.063110 218.678680,1031.037231 
	C148.927872,1030.939209 79.176842,1031.004761 9.425902,1030.974487 
	C6.819173,1030.973267 4.046924,1031.583740 1.372317,1029.328613 
z"/>
<path fill="#F4EB91" opacity="1.000000" stroke="none" 
	d="
M1.374965,959.331177 
	C1.000000,937.312439 1.000000,915.624878 1.000000,893.468628 
	C3.008893,890.843567 5.651350,891.523254 8.079520,891.522522 
	C95.233124,891.495544 182.386734,891.499268 269.540344,891.501892 
	C274.835632,891.502075 280.153656,890.793091 285.839539,892.259766 
	C287.440186,893.696045 287.493378,895.189331 287.493500,896.703491 
	C287.495178,916.813293 287.524017,936.923157 287.478058,957.032959 
	C287.476135,957.871094 287.370026,958.689026 286.728882,959.878052 
	C284.947510,961.723328 283.038879,961.674866 281.252045,961.435974 
	C275.439819,960.658508 269.610626,961.020752 263.792389,961.018738 
	C179.173996,960.988586 94.555588,961.005005 9.937202,960.969543 
	C7.171812,960.968384 4.223268,961.675476 1.374965,959.331177 
z"/>
<path fill="#F4EB91" opacity="1.000000" stroke="none" 
	d="
M1.374950,399.331177 
	C1.000000,377.312439 1.000000,355.624878 1.000000,333.468658 
	C3.008907,330.843597 5.651338,331.523224 8.079527,331.522461 
	C95.233170,331.495453 182.386810,331.499390 269.540466,331.501923 
	C274.835754,331.502075 280.153778,330.793060 285.839630,332.259827 
	C287.440247,333.696075 287.493347,335.189392 287.493469,336.703522 
	C287.495178,356.813293 287.523926,376.923065 287.478058,397.032837 
	C287.476135,397.870941 287.370056,398.688904 286.728943,399.877899 
	C284.947632,401.723236 283.039032,401.675018 281.252167,401.435944 
	C275.439911,400.658508 269.610748,401.020721 263.792511,401.018646 
	C179.174088,400.988525 94.555664,401.005157 9.937254,400.969604 
	C7.171833,400.968445 4.223244,401.675568 1.374950,399.331177 
z"/>
<path fill="#F4EB91" opacity="1.000000" stroke="none" 
	d="
M1.372165,1389.328491 
	C1.000000,1367.312378 1.000000,1345.624878 1.000000,1323.468628 
	C3.036593,1320.684937 5.785699,1321.007080 8.438052,1321.006226 
	C35.427921,1320.997559 62.417793,1321.001953 89.407661,1321.001831 
	C151.884216,1321.001587 214.360764,1320.996460 276.837311,1321.019165 
	C279.315643,1321.020020 281.845703,1320.634277 284.727783,1321.783325 
	C287.312927,1323.072388 287.501343,1325.023438 287.501221,1327.099243 
	C287.500092,1346.589722 287.501160,1366.080322 287.496765,1385.570801 
	C287.496399,1387.245605 287.536316,1388.929688 285.809174,1390.539551 
	C281.496490,1392.082764 277.458435,1391.199951 273.554474,1391.173462 
	C194.831787,1390.636108 116.108955,1391.197021 37.386856,1391.000977 
	C27.566652,1390.976440 17.746319,1391.012451 7.926108,1390.986450 
	C5.782212,1390.980835 3.554716,1391.259155 1.372165,1389.328491 
z"/>
<path fill="#F4EB91" opacity="1.000000" stroke="none" 
	d="
M1.372158,749.328491 
	C1.000000,727.312439 1.000000,705.624878 1.000000,683.468628 
	C3.036633,680.685120 5.785683,681.007019 8.438067,681.006165 
	C35.761158,680.997559 63.084251,681.002075 90.407341,681.001892 
	C152.550720,681.001587 214.694092,680.996582 276.837463,681.019287 
	C279.315826,681.020142 281.845856,680.634277 284.727966,681.783447 
	C287.313080,683.072571 287.501373,685.023743 287.501251,687.099426 
	C287.500122,706.589905 287.501160,726.080322 287.496796,745.570801 
	C287.496399,747.245605 287.536133,748.929565 285.809235,750.539429 
	C281.496552,752.082825 277.458527,751.200012 273.554535,751.173462 
	C194.498917,750.637146 115.443123,751.196655 36.388081,751.000916 
	C26.900757,750.977417 17.413303,751.012878 7.925982,750.986511 
	C5.782123,750.980530 3.554651,751.259155 1.372158,749.328491 
z"/>
<path fill="#F4EB91" opacity="1.000000" stroke="none" 
	d="
M1.376230,679.332397 
	C1.000000,657.312439 1.000000,635.624878 1.000000,613.468628 
	C2.530889,611.277405 4.585576,611.501343 6.578526,611.501282 
	C98.046524,611.499512 189.514511,611.498291 280.982513,611.508179 
	C282.471375,611.508301 283.991455,611.330566 285.840576,612.260437 
	C287.441101,613.697693 287.493408,615.191650 287.493500,616.706116 
	C287.494659,636.489563 287.524933,656.273010 287.477325,676.056396 
	C287.475311,676.895081 287.364105,677.712463 286.718567,678.900146 
	C284.318939,680.989258 281.817291,680.997803 279.304413,680.997803 
	C188.850067,680.999817 98.395714,681.001892 7.941368,680.986938 
	C5.796961,680.986633 3.566598,681.265869 1.376230,679.332397 
z"/>
<path fill="#F4EB91" opacity="1.000000" stroke="none" 
	d="
M1.376225,1319.332397 
	C1.000000,1297.312378 1.000000,1275.624878 1.000000,1253.468628 
	C2.530894,1251.277344 4.585563,1251.501343 6.578528,1251.501343 
	C98.046654,1251.499268 189.514786,1251.498413 280.982910,1251.508179 
	C282.471771,1251.508301 283.991852,1251.330566 285.840881,1252.260620 
	C287.441254,1253.697998 287.493408,1255.192017 287.493500,1256.706421 
	C287.494659,1276.489746 287.524902,1296.272949 287.477325,1316.056274 
	C287.475311,1316.895020 287.364136,1317.712280 286.718628,1318.900024 
	C284.319031,1320.989258 281.817383,1320.997803 279.304504,1320.997803 
	C188.850174,1320.999634 98.395836,1321.001709 7.941501,1320.986938 
	C5.797067,1320.986572 3.566611,1321.265991 1.376225,1319.332397 
z"/>
<path fill="#CEA863" opacity="1.000000" stroke="none" 
	d="
M285.679199,1319.277832 
	C286.009338,1297.400757 285.995300,1275.714722 285.954529,1253.567505 
	C285.392944,1252.343384 285.186249,1251.520630 285.679565,1250.219238 
	C285.917236,1227.895020 285.947357,1205.959595 285.952606,1183.562744 
	C285.391266,1182.338867 285.187134,1181.516357 285.681458,1180.215820 
	C285.918457,1154.559570 285.947968,1129.291870 285.952576,1103.562744 
	C285.391266,1102.338867 285.187134,1101.516357 285.681488,1100.215820 
	C285.917267,1077.703369 286.390961,1055.577881 285.391479,1033.102661 
	C284.419403,1032.205078 284.335846,1031.485596 284.837494,1030.387207 
	C286.421783,1028.710693 285.986908,1026.967285 285.988098,1025.352783 
	C286.003357,1004.911987 285.984070,984.471130 285.947571,963.569092 
	C285.385498,962.341064 285.185577,961.514526 285.685181,960.210938 
	C285.923218,937.890015 285.952911,915.959045 285.955627,893.566711 
	C285.393433,892.341370 285.188995,891.517822 285.687378,890.216553 
	C285.905518,867.702637 286.397919,845.575562 285.401672,823.094116 
	C284.419952,822.204041 284.343018,821.486145 284.848511,820.394348 
	C286.052856,819.195496 285.995819,818.005676 285.995728,816.844482 
	C285.994141,796.366516 285.989807,775.888611 285.966064,755.410645 
	C285.965302,754.758179 285.752594,754.105896 285.392822,753.098206 
	C284.418549,752.201721 284.338379,751.482971 284.845398,750.389404 
	C286.055847,749.194031 286.002045,748.003906 286.001923,746.842834 
	C285.999603,726.366333 285.994141,705.889893 285.969086,685.413391 
	C285.968292,684.761353 285.752289,684.109497 285.392334,683.101440 
	C283.917389,681.579407 284.053467,680.491516 285.679199,679.277954 
	C286.009338,657.401001 285.995300,635.715027 285.954590,613.567871 
	C285.393097,612.343628 285.186188,611.520813 285.679535,610.219177 
	C285.917206,587.894958 285.947357,565.959656 285.952576,543.562622 
	C285.391266,542.338867 285.187134,541.516357 285.681335,540.216064 
	C285.917511,517.703552 286.390778,495.578033 285.391479,473.102661 
	C284.419312,472.205109 284.335815,471.485748 284.837463,470.387299 
	C286.421631,468.710724 285.986908,466.967316 285.988098,465.352814 
	C286.003357,444.911987 285.984070,424.471130 285.947571,403.569092 
	C285.385498,402.341034 285.185608,401.514526 285.685181,400.210968 
	C285.923218,377.890076 285.952911,355.959137 285.955627,333.566833 
	C285.393555,332.341400 285.188965,331.517883 285.687317,330.216614 
	C285.905548,307.702637 286.397888,285.575562 285.401642,263.094055 
	C284.419861,262.203979 284.343109,261.486023 284.848541,260.394287 
	C286.052948,259.195465 285.995819,258.005554 285.995728,256.844421 
	C285.994141,236.366623 285.989777,215.888824 285.966095,195.411041 
	C285.965332,194.758530 285.752869,194.106247 285.393555,193.098358 
	C283.917664,191.578094 284.053101,190.491745 285.681885,189.284332 
	C286.018616,126.710701 286.009308,64.324005 286.000000,1.468657 
	C286.750000,1.000000 287.500000,1.000000 288.625000,1.000000 
	C291.716278,3.504367 291.058563,6.832683 291.060760,9.928669 
	C291.100372,66.229958 291.078125,122.531281 291.108124,178.832581 
	C291.109406,181.234940 290.667419,183.762421 292.233429,186.447906 
	C294.621521,184.152847 293.871277,181.565979 293.873413,179.301773 
	C293.926239,123.000496 293.898651,66.699165 293.945831,10.397884 
	C293.948273,7.467788 293.261749,4.348623 295.678986,1.363621 
	C296.750000,1.000000 297.500000,1.000000 298.625000,1.000000 
	C301.716278,3.504367 301.058563,6.832683 301.060760,9.928669 
	C301.100372,66.229958 301.078125,122.531281 301.108124,178.832581 
	C301.109406,181.234940 300.667419,183.762421 302.233429,186.447906 
	C304.621521,184.152847 303.871277,181.565979 303.873413,179.301773 
	C303.926239,123.000496 303.898651,66.699165 303.945831,10.397884 
	C303.948273,7.467788 303.261749,4.348623 305.678986,1.363621 
	C306.750000,1.000000 307.500000,1.000000 308.625000,1.000000 
	C308.993042,63.383163 308.986084,125.766327 308.969727,188.624268 
	C309.847229,190.057068 310.085022,191.134384 309.320435,192.724609 
	C309.140900,215.212280 308.559814,237.330414 309.667664,259.750305 
	C310.861816,260.542419 311.674713,261.086060 311.166504,262.597931 
	C307.817017,263.831909 309.063721,266.444611 309.054901,268.343231 
	C308.962189,288.269043 308.995392,308.195465 308.991699,328.594604 
	C310.276917,329.761261 311.096039,330.668854 310.171143,332.537292 
	C308.455322,334.557190 309.030975,336.630646 309.026306,338.558868 
	C308.978149,358.425110 308.986816,378.291473 308.968262,398.633148 
	C309.852814,400.063171 310.091705,401.139282 309.319794,402.731140 
	C309.065704,425.041290 309.049194,446.978607 309.072144,469.372253 
	C309.623962,470.603851 309.819092,471.430634 309.301636,472.721405 
	C309.063049,495.057587 309.041534,517.010193 309.054260,539.422913 
	C309.605957,540.632935 309.796509,541.437317 309.274109,542.692749 
	C309.034332,564.038696 309.009491,585.015442 309.012726,605.992249 
	C309.012909,607.141541 309.247589,608.290833 309.656616,609.753052 
	C310.571533,610.687012 310.694641,611.424011 310.175476,612.548401 
	C308.437347,614.569214 309.030731,616.646423 309.025940,618.570740 
	C308.976654,638.432434 308.986450,658.294250 308.967041,678.631226 
	C309.849396,680.060059 310.083771,681.137146 309.324310,682.728577 
	C309.068268,705.034485 309.048950,726.967468 309.066833,749.355774 
	C309.839813,750.544250 309.836151,751.406494 309.312439,752.708252 
	C309.140930,775.212280 308.559875,797.330383 309.667664,819.750244 
	C310.861755,820.542480 311.674713,821.085999 311.166504,822.597900 
	C307.817139,823.831909 309.063721,826.444580 309.054901,828.343201 
	C308.962219,848.268982 308.995392,868.195435 308.991699,888.594543 
	C310.276947,889.761230 311.096039,890.668823 310.171143,892.537231 
	C308.455383,894.557129 309.031006,896.630615 309.026337,898.558838 
	C308.978149,918.424988 308.986847,938.291382 308.968262,958.632996 
	C309.852875,960.063110 310.091644,961.139282 309.319763,962.731201 
	C309.065643,985.041199 309.049133,1006.978394 309.072113,1029.371948 
	C309.623962,1030.603760 309.819122,1031.430664 309.301575,1032.721436 
	C309.062988,1055.057617 309.041443,1077.010010 309.054138,1099.422729 
	C309.605835,1100.632935 309.796448,1101.437378 309.274048,1102.692871 
	C309.042114,1128.362183 309.031036,1153.662354 309.054169,1179.422729 
	C309.605835,1180.632935 309.796448,1181.437378 309.274048,1182.692871 
	C309.034302,1204.038696 309.009399,1225.015503 309.012695,1245.992188 
	C309.012878,1247.141479 309.247589,1248.290771 309.656555,1249.752930 
	C310.571503,1250.686890 310.694489,1251.423950 310.175476,1252.548096 
	C308.437531,1254.568970 309.030731,1256.646240 309.025940,1258.570557 
	C308.976715,1278.432251 308.986481,1298.294067 308.967041,1318.631104 
	C309.849365,1320.059937 310.083862,1321.136963 309.324310,1322.728516 
	C309.068268,1345.034424 309.048920,1366.967285 309.066833,1389.355713 
	C309.839874,1390.544189 309.836121,1391.406372 309.312439,1392.708008 
	C309.140839,1415.212280 308.559967,1437.330444 309.667603,1459.750488 
	C310.862183,1460.542236 311.674469,1461.086182 311.166534,1462.597900 
	C307.816833,1463.831787 309.063751,1466.444580 309.054932,1468.343018 
	C308.962189,1488.268921 308.995392,1508.195312 308.991699,1528.594482 
	C310.276825,1529.761353 311.096161,1530.669067 310.170776,1532.537598 
	C308.449951,1534.570190 309.030457,1536.656128 309.026550,1538.596069 
	C308.985352,1559.084961 309.001129,1579.573853 309.000610,1600.531372 
	C308.250000,1601.000000 307.500000,1601.000000 306.375000,1601.000000 
	C303.742096,1598.958496 303.946259,1596.226685 303.941437,1593.567993 
	C303.910553,1576.587158 303.960663,1559.606201 303.895477,1542.625610 
	C303.887695,1540.602783 304.492950,1538.327393 302.458923,1536.474976 
	C300.545135,1538.399658 301.109192,1540.663086 301.102020,1542.707153 
	C301.042877,1559.521240 301.096497,1576.335815 301.049011,1593.150146 
	C301.042084,1595.610718 301.425140,1598.195923 299.303040,1600.655762 
	C298.250000,1601.000000 297.500000,1601.000000 296.375000,1601.000000 
	C293.742096,1598.958496 293.946259,1596.226685 293.941437,1593.567993 
	C293.910553,1576.587158 293.960693,1559.606201 293.895508,1542.625610 
	C293.887726,1540.602783 294.492950,1538.327393 292.458923,1536.474976 
	C290.545135,1538.399658 291.109192,1540.663086 291.102020,1542.707153 
	C291.042877,1559.521240 291.096497,1576.335815 291.049011,1593.150146 
	C291.042084,1595.610718 291.425140,1598.195923 289.303040,1600.655762 
	C288.250000,1601.000000 287.500000,1601.000000 286.375000,1601.000000 
	C285.994324,1578.676147 285.988617,1556.352295 285.955963,1533.567139 
	C285.394073,1532.341797 285.189056,1531.518188 285.687378,1530.216797 
	C285.905487,1507.702637 286.398010,1485.575562 285.401581,1463.093872 
	C284.419769,1462.203857 284.343109,1461.485962 284.848572,1460.394287 
	C286.053131,1459.195557 285.995789,1458.005615 285.995697,1456.844482 
	C285.994171,1436.366577 285.989838,1415.888672 285.966125,1395.410767 
	C285.965363,1394.758301 285.752594,1394.105957 285.392822,1393.098267 
	C284.418610,1392.201782 284.338470,1391.483032 284.845490,1390.389404 
	C286.055878,1389.193970 286.002075,1388.003784 286.001923,1386.842773 
	C285.999573,1366.366211 285.994110,1345.889771 285.969025,1325.413208 
	C285.968231,1324.761108 285.752136,1324.109375 285.392212,1323.101318 
	C283.917450,1321.579224 284.053528,1320.491333 285.679199,1319.277832 
z"/>
<path fill="#C8C082" opacity="1.000000" stroke="none" 
	d="
M309.547058,1323.060547 
	C309.053101,1322.033813 309.018585,1320.966064 308.969177,1319.502319 
	C314.119812,1319.121094 319.285370,1319.149048 324.450897,1319.149048 
	C1065.323853,1319.151001 1806.196899,1319.151001 2547.069824,1319.148926 
	C2551.402100,1319.148926 2555.734619,1319.117920 2560.533447,1319.050659 
	C2561.000000,1320.066650 2561.000000,1321.133423 2561.000000,1322.600098 
	C2559.166748,1322.993286 2557.333496,1322.980835 2555.500244,1322.980835 
	C1809.335449,1322.979858 1063.170776,1322.979736 317.006012,1322.981323 
	C314.672821,1322.981323 312.339661,1323.006348 309.547058,1323.060547 
z"/>
<path fill="#C8C082" opacity="1.000000" stroke="none" 
	d="
M309.542664,193.057983 
	C309.051392,192.028656 309.020111,190.960327 308.974609,189.495514 
	C314.792389,189.116318 320.624481,189.148697 326.456543,189.148712 
	C1068.494019,189.150970 1810.531616,189.150894 2552.569092,189.148849 
	C2555.068359,189.148849 2557.567627,189.118607 2560.533447,189.051239 
	C2561.000000,190.066666 2561.000000,191.133347 2561.000000,192.600006 
	C2549.833496,192.993820 2538.666748,192.982269 2527.500244,192.982239 
	C1790.667480,192.980957 1053.834595,192.980545 317.001831,192.981735 
	C314.668762,192.981750 312.335724,193.006027 309.542664,193.057983 
z"/>
<path fill="#C8C082" opacity="1.000000" stroke="none" 
	d="
M309.547028,683.060669 
	C309.053101,682.033875 309.018585,680.966125 308.969177,679.502441 
	C314.119843,679.120544 319.285370,679.147095 324.450928,679.147095 
	C1067.156860,679.148987 1809.862915,679.148987 2552.568848,679.146973 
	C2555.068115,679.146973 2557.567627,679.117249 2560.533447,679.050659 
	C2561.000000,680.066711 2561.000000,681.133362 2561.000000,682.600098 
	C2559.166748,682.993347 2557.333496,682.980896 2555.500244,682.980896 
	C1809.335449,682.979858 1063.170776,682.979614 317.006012,682.981201 
	C314.672821,682.981201 312.339661,683.006348 309.547028,683.060669 
z"/>
<path fill="#C8C082" opacity="1.000000" stroke="none" 
	d="
M309.542664,1393.057983 
	C309.079132,1392.276245 309.075592,1391.455566 309.088074,1390.223022 
	C311.525360,1388.981323 314.035034,1389.152954 316.530182,1389.152954 
	C1062.376343,1389.152832 1808.222656,1389.152100 2554.068848,1389.149414 
	C2556.068115,1389.149414 2558.067627,1389.119019 2560.533447,1389.051514 
	C2561.000000,1390.066650 2561.000000,1391.133423 2561.000000,1392.600098 
	C2551.833496,1392.993896 2542.666748,1392.982300 2533.500244,1392.982300 
	C1794.667603,1392.980957 1055.834961,1392.980469 317.002228,1392.981689 
	C314.669037,1392.981689 312.335846,1393.006104 309.542664,1393.057983 
z"/>
<path fill="#C8C082" opacity="1.000000" stroke="none" 
	d="
M309.542664,753.057983 
	C309.079132,752.276306 309.075592,751.455627 309.088074,750.223022 
	C311.525391,748.981140 314.035034,749.153137 316.530212,749.153137 
	C1062.543091,749.152954 1808.556030,749.152161 2554.568848,749.149292 
	C2556.401611,749.149292 2558.234131,749.119019 2560.533447,749.051392 
	C2561.000000,750.066711 2561.000000,751.133362 2561.000000,752.600037 
	C2549.333496,752.993896 2537.666748,752.982300 2526.000244,752.982300 
	C1789.667480,752.981018 1053.334595,752.980652 317.001831,752.981873 
	C314.668762,752.981873 312.335693,753.006104 309.542664,753.057983 
z"/>
<path fill="#C8C082" opacity="1.000000" stroke="none" 
	d="
M309.542084,403.062317 
	C309.050110,402.036102 309.018005,400.968262 308.971375,399.504456 
	C311.552673,399.812286 314.094116,400.064026 316.831146,399.492615 
	C319.237701,398.990234 321.800049,399.159363 324.293610,399.159332 
	C1067.051880,399.148499 1809.810059,399.148773 2552.568359,399.146759 
	C2555.067871,399.146759 2557.567383,399.116913 2560.533447,399.050476 
	C2561.000000,400.066681 2561.000000,401.133331 2561.000000,402.600006 
	C2559.333252,402.993195 2557.666748,402.980438 2556.000000,402.980438 
	C1809.667236,402.979523 1063.334351,402.979431 317.001587,402.981140 
	C314.668396,402.981140 312.335175,403.006927 309.542084,403.062317 
z"/>
<path fill="#C8C082" opacity="1.000000" stroke="none" 
	d="
M309.542053,963.062378 
	C309.050079,962.036133 309.018005,960.968201 308.971375,959.504272 
	C311.552643,959.812439 314.094025,960.063965 316.831085,959.492615 
	C319.237579,958.990173 321.799988,959.159546 324.293518,959.159546 
	C1067.051758,959.148682 1809.810059,959.149048 2552.568359,959.146973 
	C2555.067871,959.146973 2557.567383,959.117065 2560.533447,959.050537 
	C2561.000000,960.066711 2561.000000,961.133362 2561.000000,962.600037 
	C2558.833252,962.993225 2556.666748,962.980408 2554.500000,962.980408 
	C1808.833862,962.979553 1063.167725,962.979492 317.501587,962.981140 
	C315.001709,962.981140 312.501831,963.006897 309.542053,963.062378 
z"/>
<path fill="#C8C082" opacity="1.000000" stroke="none" 
	d="
M309.544250,1033.063721 
	C309.080780,1032.286621 309.076996,1031.468140 309.092407,1030.239014 
	C315.456512,1030.661499 321.700012,1029.089966 328.032684,1029.090576 
	C1069.711426,1029.155029 1811.390259,1029.151367 2553.069092,1029.149292 
	C2555.401611,1029.149292 2557.734375,1029.118774 2560.533447,1029.051270 
	C2561.000000,1030.066650 2561.000000,1031.133423 2561.000000,1032.600098 
	C2555.666748,1032.993652 2550.333496,1032.981689 2545.000244,1032.981689 
	C1802.501221,1032.980591 1060.002319,1032.980469 317.503296,1032.982056 
	C315.003510,1032.982056 312.503723,1033.008301 309.544250,1033.063721 
z"/>
<path fill="#C8C082" opacity="1.000000" stroke="none" 
	d="
M309.544281,473.063660 
	C309.080780,472.286560 309.076996,471.468140 309.092407,470.239136 
	C315.456543,470.661438 321.699982,469.089417 328.032654,469.089966 
	C1069.544800,469.154388 1811.056885,469.150787 2552.569092,469.148743 
	C2555.068359,469.148743 2557.567627,469.118469 2560.533447,469.051178 
	C2561.000000,470.066681 2561.000000,471.133331 2561.000000,472.600037 
	C2559.166748,472.993713 2557.333252,472.981873 2555.500000,472.981842 
	C1809.334473,472.980804 1063.168945,472.980560 317.003326,472.982086 
	C314.670227,472.982117 312.337097,473.008362 309.544281,473.063660 
z"/>
<path fill="#C8C082" opacity="1.000000" stroke="none" 
	d="
M310.369202,892.887329 
	C310.016876,891.705750 309.957550,890.623291 309.111725,889.374512 
	C315.314789,890.497375 321.769684,889.879272 328.125854,889.880310 
	C979.279297,889.984009 1630.432739,889.977173 2281.586182,889.977600 
	C2374.417725,889.977661 2467.249023,889.980469 2560.540283,889.991028 
	C2561.000000,890.750000 2561.000000,891.500000 2561.000000,892.625000 
	C2023.414062,892.996094 1485.828125,892.991821 948.242249,892.988403 
	C737.440552,892.987061 526.638855,892.987915 315.837189,892.986084 
	C314.170959,892.986023 312.504730,892.961975 310.369202,892.887329 
z"/>
<path fill="#C8C082" opacity="1.000000" stroke="none" 
	d="
M310.368774,1532.887451 
	C310.017181,1531.705811 309.957520,1530.623413 309.111694,1529.374390 
	C315.314728,1530.497925 321.769745,1529.879028 328.125824,1529.880005 
	C953.946411,1529.984253 1579.766968,1529.977051 2205.587646,1529.977539 
	C2323.751953,1529.977661 2441.916260,1529.980469 2560.540283,1529.990967 
	C2561.000000,1530.750000 2561.000000,1531.500000 2561.000000,1532.625000 
	C2001.083984,1532.996338 1441.167969,1532.992188 881.251892,1532.988892 
	C692.780151,1532.987671 504.308411,1532.988281 315.836670,1532.986328 
	C314.170502,1532.986328 312.504303,1532.962158 310.368774,1532.887451 
z"/>
<path fill="#C8C082" opacity="1.000000" stroke="none" 
	d="
M310.369202,332.887390 
	C310.016907,331.705780 309.957458,330.623352 309.111725,329.374542 
	C315.314758,330.498169 321.769745,329.879089 328.125885,329.880127 
	C965.946289,329.984100 1603.766724,329.977051 2241.587158,329.977478 
	C2347.751709,329.977570 2453.916016,329.980469 2560.540283,329.991028 
	C2561.000000,330.750000 2561.000000,331.500000 2561.000000,332.625000 
	C2023.414062,332.996063 1485.828125,332.991821 948.242249,332.988434 
	C737.440552,332.987091 526.638855,332.987885 315.837189,332.985992 
	C314.170959,332.985962 312.504730,332.961945 310.369202,332.887390 
z"/>
<path fill="#C8C082" opacity="1.000000" stroke="none" 
	d="
M309.501587,1103.031982 
	C309.049042,1102.268799 309.044861,1101.475464 309.064575,1100.282593 
	C312.586395,1099.915771 316.084351,1099.977295 319.582336,1099.977417 
	C1066.417603,1099.982422 1813.252930,1099.983032 2560.543945,1099.991943 
	C2561.000000,1100.750000 2561.000000,1101.500000 2561.000000,1102.625000 
	C1878.136719,1102.996948 1195.273438,1102.993530 512.410156,1102.991333 
	C444.923431,1102.991089 377.436707,1102.998047 309.501587,1103.031982 
z"/>
<path fill="#C8C082" opacity="1.000000" stroke="none" 
	d="
M309.501587,1183.031982 
	C309.049042,1182.268799 309.044891,1181.475464 309.064575,1180.282593 
	C312.586395,1179.915771 316.084351,1179.977417 319.582336,1179.977417 
	C1066.417603,1179.982422 1813.252930,1179.983032 2560.543945,1179.991943 
	C2561.000000,1180.750000 2561.000000,1181.500000 2561.000000,1182.625000 
	C1878.136719,1182.996948 1195.273438,1182.993530 512.410156,1182.991333 
	C444.923431,1182.991089 377.436707,1182.998047 309.501587,1183.031982 
z"/>
<path fill="#C8C082" opacity="1.000000" stroke="none" 
	d="
M309.501617,543.031799 
	C309.049042,542.268677 309.044891,541.475525 309.064636,540.282654 
	C312.586487,539.915771 316.084442,539.977173 319.582428,539.977234 
	C1066.417725,539.982300 1813.252930,539.982971 2560.543945,539.991943 
	C2561.000000,540.750000 2561.000000,541.500000 2561.000000,542.625000 
	C1880.802734,542.996887 1200.605591,542.993408 520.408325,542.991211 
	C450.255554,542.990967 380.102783,542.998047 309.501617,543.031799 
z"/>
<path fill="#C8C082" opacity="1.000000" stroke="none" 
	d="
M310.378601,1252.904907 
	C309.932831,1252.153687 309.952301,1251.458618 309.955872,1250.414795 
	C313.105377,1250.037476 316.270752,1249.983765 319.436096,1249.983765 
	C1066.320068,1249.980957 1813.204102,1249.982178 2560.543945,1249.991699 
	C2561.000000,1250.750000 2561.000000,1251.500000 2561.000000,1252.625000 
	C1877.271118,1252.996948 1193.542358,1252.994629 509.813446,1252.989502 
	C443.490234,1252.989014 377.167023,1252.970947 310.378601,1252.904907 
z"/>
<path fill="#C8C082" opacity="1.000000" stroke="none" 
	d="
M310.378601,612.905090 
	C309.932861,612.153931 309.952332,611.458740 309.955933,610.414795 
	C313.105438,610.037354 316.270813,609.983704 319.436157,609.983704 
	C1066.320190,609.981079 1813.204102,609.982178 2560.543945,609.991577 
	C2561.000000,610.750000 2561.000000,611.500000 2561.000000,612.625000 
	C1890.435791,612.996704 1219.871582,612.994385 549.307434,612.988953 
	C469.819550,612.988281 390.331696,612.970825 310.378601,612.905090 
z"/>
<path fill="#C8C082" opacity="1.000000" stroke="none" 
	d="
M311.383545,262.921844 
	C310.681183,262.123840 310.442047,261.373108 310.079712,260.340332 
	C313.121979,260.033447 316.287445,259.986847 319.452911,259.986847 
	C1066.332886,259.984344 1813.212769,259.985107 2560.546387,259.992859 
	C2561.000000,260.750000 2561.000000,261.500000 2561.000000,262.625000 
	C1813.114990,262.997131 1065.230103,262.994263 317.345093,262.990479 
	C315.512329,262.990479 313.679535,262.976562 311.383545,262.921844 
z"/>
<path fill="#C8C082" opacity="1.000000" stroke="none" 
	d="
M311.383545,822.921753 
	C310.681183,822.123840 310.442047,821.373108 310.079712,820.340332 
	C312.955322,820.033447 315.954163,819.986938 318.952972,819.986938 
	C1065.999512,819.984436 1813.046143,819.985168 2560.546387,819.992920 
	C2561.000000,820.750000 2561.000000,821.500000 2561.000000,822.625000 
	C1813.114990,822.997131 1065.230103,822.994324 317.345093,822.990540 
	C315.512329,822.990540 313.679535,822.976501 311.383545,822.921753 
z"/>
<path fill="#C8C082" opacity="1.000000" stroke="none" 
	d="
M311.383545,1462.921753 
	C310.681183,1462.123901 310.442078,1461.373169 310.079712,1460.340576 
	C313.288605,1460.033691 316.620728,1459.986938 319.952820,1459.986938 
	C1066.666138,1459.984375 1813.379395,1459.985229 2560.546387,1459.992920 
	C2561.000000,1460.750000 2561.000000,1461.500000 2561.000000,1462.625000 
	C1813.115112,1462.997192 1065.230225,1462.994385 317.345367,1462.990845 
	C315.512512,1462.990845 313.679626,1462.976562 311.383545,1462.921753 
z"/>
<path fill="#F4EB91" opacity="1.000000" stroke="none" 
	d="
M295.562500,1.000000 
	C296.000610,61.941410 296.001617,122.882820 295.998993,183.824234 
	C295.998932,185.155655 296.013641,186.490952 295.922516,187.817642 
	C295.752838,190.287796 293.854034,189.977219 292.217926,190.013519 
	C290.619690,190.048996 289.136108,189.840744 289.064270,187.756577 
	C289.006958,186.093353 288.997406,184.427856 288.997314,182.763367 
	C288.994324,122.488014 288.994965,62.212658 288.997559,1.468652 
	C291.041656,1.000000 293.083344,1.000000 295.562500,1.000000 
z"/>
<path fill="#F4EB91" opacity="1.000000" stroke="none" 
	d="
M305.562500,1.000000 
	C306.000977,61.940796 306.002380,122.881592 306.000427,183.822388 
	C306.000366,185.153809 306.023773,186.489655 305.928436,187.815689 
	C305.752014,190.268875 303.869385,189.991455 302.222137,190.017212 
	C300.625122,190.042175 299.134735,189.834808 299.065765,187.754807 
	C299.005096,185.925201 299.005066,184.093094 299.004944,182.262085 
	C299.001099,122.153831 299.000427,62.045570 298.999664,1.468657 
	C301.041656,1.000000 303.083344,1.000000 305.562500,1.000000 
z"/>
<path fill="#C8C082" opacity="1.000000" stroke="none" 
	d="
M285.552979,1319.109619 
	C285.721283,1320.097412 285.419250,1321.108154 285.132629,1322.432129 
	C282.322021,1322.823975 279.496033,1322.971313 276.670044,1322.971802 
	C185.092438,1322.985107 93.514839,1322.984619 1.468618,1322.993164 
	C1.000000,1321.933350 1.000000,1320.866577 1.000000,1319.399902 
	C2.329338,1319.049683 3.658674,1319.142578 4.988013,1319.142700 
	C98.352867,1319.143921 191.717728,1319.138062 285.552979,1319.109619 
z"/>
<path fill="#C8C082" opacity="1.000000" stroke="none" 
	d="
M285.556946,189.115326 
	C285.723541,190.104080 285.419189,191.110748 285.131439,192.430145 
	C282.322144,192.822479 279.496277,192.971298 276.670380,192.971725 
	C185.092667,192.985718 93.514961,192.985397 1.468624,192.993607 
	C1.000000,191.933334 1.000000,190.866653 1.000000,189.399994 
	C2.329302,189.050186 3.658604,189.144272 4.987907,189.144287 
	C98.353928,189.145401 191.719940,189.139023 285.556946,189.115326 
z"/>
<path fill="#C8C082" opacity="1.000000" stroke="none" 
	d="
M285.552948,679.109863 
	C285.721313,680.097595 285.419250,681.108276 285.132629,682.432129 
	C282.322052,682.824097 279.496033,682.971375 276.670044,682.971802 
	C185.092438,682.985413 93.514839,682.984741 1.468618,682.993103 
	C1.000000,681.933289 1.000000,680.866638 1.000000,679.399963 
	C2.329334,679.049622 3.658668,679.142578 4.988003,679.142578 
	C98.352852,679.144104 191.717697,679.138184 285.552948,679.109863 
z"/>
<path fill="#C8C082" opacity="1.000000" stroke="none" 
	d="
M285.465637,399.869446 
	C285.915863,400.642792 285.938202,401.464539 285.941040,402.697083 
	C282.423248,403.065491 278.924957,402.986389 275.426636,402.986176 
	C184.263504,402.981110 93.100365,402.984192 1.468616,402.992950 
	C1.000000,401.933319 1.000000,400.866669 1.000000,399.399963 
	C3.328132,399.049561 5.656260,399.142273 7.984396,399.142487 
	C95.865776,399.150269 183.747162,399.138245 271.628510,399.182526 
	C276.098389,399.184784 280.567993,399.661865 285.465637,399.869446 
z"/>
<path fill="#C8C082" opacity="1.000000" stroke="none" 
	d="
M285.465637,959.869446 
	C285.915863,960.642822 285.938202,961.464539 285.941071,962.697144 
	C282.423248,963.065613 278.924957,962.986511 275.426636,962.986328 
	C184.263504,962.981201 93.100365,962.984314 1.468616,962.992981 
	C1.000000,961.933289 1.000000,960.866638 1.000000,959.399963 
	C3.328129,959.049683 5.656253,959.142456 7.984387,959.142639 
	C86.877892,959.150208 165.771408,959.120911 244.664886,959.176147 
	C258.123688,959.185547 271.600891,958.570557 285.465637,959.869446 
z"/>
<path fill="#C8C082" opacity="1.000000" stroke="none" 
	d="
M284.690918,1390.045410 
	C285.105865,1390.765259 285.101532,1391.427612 285.122101,1392.416382 
	C282.487671,1392.822388 279.828278,1392.971069 277.168915,1392.971436 
	C185.425018,1392.985474 93.681137,1392.985352 1.468623,1392.993652 
	C1.000000,1391.933350 1.000000,1390.866577 1.000000,1389.399902 
	C3.163790,1389.050415 5.327576,1389.144775 7.491370,1389.144897 
	C93.628555,1389.152344 179.765762,1389.119751 265.902832,1389.218628 
	C272.015350,1389.225586 278.202911,1388.519165 284.690918,1390.045410 
z"/>
<path fill="#C8C082" opacity="1.000000" stroke="none" 
	d="
M284.690857,750.045471 
	C285.105835,750.765259 285.101501,751.427612 285.122070,752.416382 
	C282.321136,752.822510 279.495239,752.971313 276.669373,752.971741 
	C185.091995,752.985779 93.514626,752.985474 1.468624,752.993652 
	C1.000000,751.933289 1.000000,750.866638 1.000000,749.399963 
	C3.330400,749.050476 5.660796,749.144775 7.991199,749.144958 
	C93.961723,749.152527 179.932281,749.119568 265.902679,749.218506 
	C272.015228,749.225525 278.202850,748.519165 284.690857,750.045471 
z"/>
<path fill="#C8C082" opacity="1.000000" stroke="none" 
	d="
M284.661316,470.053223 
	C285.097717,470.762268 285.096741,471.427338 285.120239,472.420349 
	C282.152222,472.826385 279.159729,472.972351 276.167206,472.972809 
	C184.757217,472.986267 93.347229,472.985504 1.468622,472.993469 
	C1.000000,471.933319 1.000000,470.866669 1.000000,469.399994 
	C3.163500,469.050262 5.326996,469.144196 7.490501,469.144440 
	C83.287086,469.152008 159.083664,469.146301 234.880249,469.154205 
	C251.332687,469.155914 267.790527,468.892181 284.661316,470.053223 
z"/>
<path fill="#C8C082" opacity="1.000000" stroke="none" 
	d="
M284.661316,1030.053223 
	C285.097748,1030.762207 285.096771,1031.427246 285.120300,1032.420410 
	C282.152252,1032.826538 279.159760,1032.972778 276.167236,1032.973267 
	C184.757233,1032.986450 93.347244,1032.985474 1.468622,1032.993408 
	C1.000000,1031.933350 1.000000,1030.866577 1.000000,1029.399902 
	C3.163495,1029.050415 5.326984,1029.144653 7.490483,1029.144897 
	C83.287064,1029.152588 159.083633,1029.146973 234.880219,1029.154663 
	C251.332657,1029.156372 267.790466,1028.893555 284.661316,1030.053223 
z"/>
<path fill="#C8C082" opacity="1.000000" stroke="none" 
	d="
M285.468231,889.872192 
	C285.917938,890.647156 285.940125,891.466492 285.945465,892.695618 
	C282.263489,893.064087 278.598389,892.986755 274.933258,892.986572 
	C183.934586,892.981628 92.935913,892.984863 1.468620,892.993286 
	C1.000000,892.250000 1.000000,891.500000 1.000000,890.375000 
	C80.408020,889.987854 159.816040,889.977783 239.224060,889.961731 
	C254.496277,889.958618 269.768494,889.932251 285.468231,889.872192 
z"/>
<path fill="#C8C082" opacity="1.000000" stroke="none" 
	d="
M285.468201,329.872253 
	C285.917877,330.647217 285.940094,331.466614 285.945435,332.695740 
	C282.263489,333.064087 278.598389,332.986725 274.933258,332.986511 
	C183.934586,332.981537 92.935913,332.984772 1.468620,332.993286 
	C1.000000,332.250000 1.000000,331.500000 1.000000,330.375000 
	C80.408020,329.987823 159.816040,329.977692 239.224060,329.961639 
	C254.496277,329.958557 269.768494,329.932281 285.468201,329.872253 
z"/>
<path fill="#C8C082" opacity="1.000000" stroke="none" 
	d="
M284.706299,1460.018799 
	C285.112396,1460.768188 285.110260,1461.427002 285.134644,1462.410156 
	C282.835144,1462.817505 280.509125,1462.972412 278.183075,1462.972778 
	C186.101135,1462.986816 94.019203,1462.986816 1.468631,1462.994385 
	C1.000000,1462.250000 1.000000,1461.500000 1.000000,1460.375000 
	C90.485619,1459.988037 179.971268,1459.948608 269.456787,1460.037720 
	C274.405823,1460.042603 279.346252,1457.976685 284.706299,1460.018799 
z"/>
<path fill="#C8C082" opacity="1.000000" stroke="none" 
	d="
M284.706299,260.018860 
	C285.112427,260.768250 285.110291,261.427063 285.134705,262.410339 
	C282.835175,262.817566 280.509125,262.972229 278.183075,262.972595 
	C186.101135,262.986694 94.019203,262.986847 1.468631,262.994385 
	C1.000000,262.250000 1.000000,261.500000 1.000000,260.375000 
	C90.485596,259.987976 179.971222,259.948547 269.456726,260.037628 
	C274.405762,260.042542 279.346191,257.976440 284.706299,260.018860 
z"/>
<path fill="#C8C082" opacity="1.000000" stroke="none" 
	d="
M285.468201,1529.872314 
	C285.917969,1530.647461 285.940216,1531.466797 285.945740,1532.696045 
	C282.263916,1533.064453 278.598785,1532.987061 274.933685,1532.986816 
	C183.934875,1532.981812 92.936058,1532.984985 1.468622,1532.993408 
	C1.000000,1532.250000 1.000000,1531.500000 1.000000,1530.375000 
	C80.407997,1529.987793 159.815994,1529.977661 239.223999,1529.961670 
	C254.496231,1529.958618 269.768463,1529.932373 285.468201,1529.872314 
z"/>
<path fill="#C8C082" opacity="1.000000" stroke="none" 
	d="
M284.706299,820.018921 
	C285.112427,820.768372 285.110321,821.427185 285.134705,822.410461 
	C282.835205,822.817627 280.509125,822.972290 278.183075,822.972656 
	C186.101135,822.986816 94.019203,822.986938 1.468632,822.994446 
	C1.000000,822.250000 1.000000,821.500000 1.000000,820.375000 
	C90.485596,819.987976 179.971222,819.948608 269.456726,820.037781 
	C274.405762,820.042725 279.346191,817.976074 284.706299,820.018921 
z"/>
<path fill="#C8C082" opacity="1.000000" stroke="none" 
	d="
M285.429382,609.874268 
	C285.911926,610.649231 285.936737,611.468201 285.944702,612.696899 
	C282.596130,613.064880 279.264374,612.986877 275.932617,612.986694 
	C184.600830,612.981812 93.269035,612.984863 1.468620,612.993286 
	C1.000000,612.250000 1.000000,611.500000 1.000000,610.375000 
	C93.490959,609.987305 185.981918,609.974915 278.472870,609.960144 
	C280.639130,609.959839 282.805389,609.932800 285.429382,609.874268 
z"/>
<path fill="#C8C082" opacity="1.000000" stroke="none" 
	d="
M285.431122,1099.871582 
	C285.913269,1100.645630 285.937592,1101.464111 285.944794,1102.691772 
	C282.762543,1103.061279 279.597351,1102.986938 276.432190,1102.986816 
	C184.933868,1102.982422 93.435562,1102.985352 1.468623,1102.993652 
	C1.000000,1102.250000 1.000000,1101.500000 1.000000,1100.375000 
	C93.324829,1099.987793 185.649658,1099.975830 277.974487,1099.961426 
	C280.307404,1099.961060 282.640350,1099.931763 285.431122,1099.871582 
z"/>
<path fill="#C8C082" opacity="1.000000" stroke="none" 
	d="
M285.429382,1249.874146 
	C285.911896,1250.649170 285.936707,1251.468140 285.944641,1252.696533 
	C282.596039,1253.064575 279.264282,1252.986694 275.932526,1252.986572 
	C184.600769,1252.981689 93.269005,1252.984863 1.468621,1252.993408 
	C1.000000,1252.250000 1.000000,1251.500000 1.000000,1250.375000 
	C93.490944,1249.987305 185.981888,1249.974731 278.472839,1249.959961 
	C280.639099,1249.959595 282.805359,1249.932617 285.429382,1249.874146 
z"/>
<path fill="#C8C082" opacity="1.000000" stroke="none" 
	d="
M285.431122,1179.871582 
	C285.913300,1180.645630 285.937592,1181.464111 285.944794,1182.691895 
	C282.762543,1183.061401 279.597351,1182.987061 276.432190,1182.986816 
	C184.933868,1182.982422 93.435562,1182.985352 1.468623,1182.993652 
	C1.000000,1182.250000 1.000000,1181.500000 1.000000,1180.375000 
	C93.324829,1179.987793 185.649658,1179.975830 277.974487,1179.961426 
	C280.307404,1179.961060 282.640350,1179.931763 285.431122,1179.871582 
z"/>
<path fill="#C8C082" opacity="1.000000" stroke="none" 
	d="
M285.430969,539.871826 
	C285.913177,540.645813 285.937531,541.464111 285.944763,542.691650 
	C282.762482,543.061218 279.597321,542.987061 276.432129,542.986938 
	C184.933838,542.982544 93.435539,542.985535 1.468624,542.993652 
	C1.000000,542.250000 1.000000,541.500000 1.000000,540.375000 
	C93.324776,539.987671 185.649551,539.975647 277.974335,539.961121 
	C280.307251,539.960754 282.640167,539.931885 285.430969,539.871826 
z"/>
<path fill="#F4EB91" opacity="1.000000" stroke="none" 
	d="
M299.437500,1601.000000 
	C298.999359,1580.044189 298.981781,1559.088257 299.021973,1538.132446 
	C299.026428,1535.815308 298.142883,1532.970337 302.282043,1532.839111 
	C306.653564,1532.700562 305.997864,1535.587769 305.999023,1538.192993 
	C306.008331,1558.816284 306.002869,1579.439453 306.000977,1600.531372 
	C303.958344,1601.000000 301.916656,1601.000000 299.437500,1601.000000 
z"/>
<path fill="#F4EB91" opacity="1.000000" stroke="none" 
	d="
M289.437500,1601.000000 
	C288.998108,1580.045044 288.978760,1559.090210 289.019012,1538.135254 
	C289.023468,1535.821411 288.138000,1532.971802 292.279083,1532.841187 
	C296.647949,1532.703369 296.000061,1535.594116 296.001556,1538.195801 
	C296.013306,1558.818115 296.007141,1579.440430 296.003235,1600.531372 
	C293.958344,1601.000000 291.916656,1601.000000 289.437500,1601.000000 
z"/>
<path fill="#F4EB91" opacity="1.000000" stroke="none" 
	d="
M296.009216,1135.000000 
	C296.008423,1148.810181 296.000824,1162.120483 296.013184,1175.430664 
	C296.015442,1177.833984 296.247894,1180.075684 292.610779,1180.106323 
	C289.164490,1180.135132 288.968353,1178.269531 288.973145,1175.659424 
	C289.015228,1152.865723 289.012787,1130.071899 288.968964,1107.278198 
	C288.963928,1104.655518 289.216156,1102.793457 292.636169,1102.829224 
	C296.279602,1102.867432 296.015900,1105.162720 296.013519,1107.546753 
	C296.004578,1116.531128 296.009491,1125.515625 296.009216,1135.000000 
z"/>
<path fill="#F4EB91" opacity="1.000000" stroke="none" 
	d="
M306.002869,1153.000000 
	C306.002686,1160.986572 305.957581,1168.473511 306.027863,1175.959473 
	C306.051025,1178.428711 305.709473,1180.097534 302.586060,1180.098267 
	C299.625061,1180.098999 298.963501,1178.759155 298.969940,1176.130859 
	C299.026672,1153.005737 299.026123,1129.880493 298.969849,1106.755371 
	C298.963318,1104.076294 299.771454,1102.830933 302.667450,1102.835327 
	C305.870483,1102.840210 306.020996,1104.708740 306.016296,1107.081421 
	C305.986298,1122.220947 306.002106,1137.360474 306.002869,1153.000000 
z"/>
<path fill="#F4EB91" opacity="1.000000" stroke="none" 
	d="
M298.998779,378.999847 
	C298.998627,364.861359 298.999481,351.222839 298.997223,337.584320 
	C298.996857,335.226562 298.670532,332.913055 302.332001,332.830200 
	C306.239166,332.741821 306.018982,335.139252 306.016144,337.743866 
	C305.995361,356.871063 306.001617,375.998230 306.007568,395.125427 
	C306.008331,397.649109 306.414520,400.150574 302.424530,400.106171 
	C298.340424,400.060699 299.023956,397.377869 299.008514,394.967804 
	C298.975525,389.812012 298.998657,384.655823 298.998779,378.999847 
z"/>
<path fill="#F4EB91" opacity="1.000000" stroke="none" 
	d="
M288.992981,585.000000 
	C288.992706,572.190857 288.994232,559.881653 288.990723,547.572510 
	C288.990051,545.208069 288.681580,542.905518 292.337891,542.827942 
	C296.245148,542.745056 296.023102,545.149048 296.020630,547.748291 
	C296.002380,566.877380 296.005707,586.006531 296.017670,605.135620 
	C296.019287,607.683533 296.374329,610.140137 292.411713,610.101562 
	C288.312744,610.061707 289.016174,607.362305 289.003693,604.961731 
	C288.969879,598.474670 288.992645,591.987244 288.992981,585.000000 
z"/>
<path fill="#F4EB91" opacity="1.000000" stroke="none" 
	d="
M296.009430,1368.000000 
	C296.004608,1374.488037 295.935089,1380.477051 296.025848,1386.463623 
	C296.063660,1388.958862 295.219543,1390.094849 292.580933,1390.076294 
	C290.101471,1390.058960 288.964233,1389.273193 288.972107,1386.629395 
	C289.032104,1366.503174 289.030853,1346.376343 288.979462,1326.250122 
	C288.972595,1323.564209 290.244019,1322.880249 292.667114,1322.858032 
	C295.386536,1322.833252 296.035553,1324.185547 296.027222,1326.581665 
	C295.979767,1340.220947 296.007355,1353.860474 296.009430,1368.000000 
z"/>
<path fill="#F4EB91" opacity="1.000000" stroke="none" 
	d="
M304.683563,1389.771851 
	C299.971130,1390.833862 298.882751,1388.918823 298.921051,1384.810669 
	C299.097809,1365.836060 299.000366,1346.858887 298.995911,1327.882568 
	C298.995300,1325.372925 298.546417,1322.816162 302.534821,1322.830688 
	C306.581268,1322.845459 305.997131,1325.511353 305.998718,1327.955200 
	C306.010986,1346.931519 306.017029,1365.907715 305.983734,1384.884033 
	C305.980927,1386.490234 306.469055,1388.246826 304.683563,1389.771851 
z"/>
<path fill="#F4EB91" opacity="1.000000" stroke="none" 
	d="
M288.996094,415.017975 
	C288.997131,412.026978 289.055450,409.530334 288.982849,407.037506 
	C288.912323,404.616516 289.225769,402.842316 292.379303,402.836060 
	C295.315857,402.830231 296.041168,404.165924 296.033783,406.799988 
	C295.978058,426.593414 295.973999,446.387177 296.036682,466.180542 
	C296.045135,468.850372 295.290314,470.094543 292.368835,470.091675 
	C289.198029,470.088593 288.970062,468.330627 288.975616,465.912781 
	C289.014160,449.113251 288.996033,432.313599 288.996094,415.017975 
z"/>
<path fill="#F4EB91" opacity="1.000000" stroke="none" 
	d="
M299.002197,480.105103 
	C299.695587,477.183838 297.017456,473.128876 302.300110,472.892120 
	C304.716125,472.783813 306.025269,473.518890 306.018768,476.221588 
	C305.970337,496.349823 305.968292,516.478333 306.028717,536.606506 
	C306.036591,539.233643 304.930695,540.025330 302.440277,540.086548 
	C299.331299,540.162842 298.969971,538.472717 298.976440,535.984375 
	C299.024323,517.519592 299.002045,499.054626 299.002197,480.105103 
z"/>
<path fill="#F4EB91" opacity="1.000000" stroke="none" 
	d="
M288.992981,1414.000000 
	C288.993561,1408.011475 289.039185,1402.522217 288.974091,1397.034302 
	C288.945251,1394.604980 289.241333,1392.848877 292.383789,1392.839478 
	C295.316040,1392.830811 296.047089,1394.149780 296.039337,1396.793213 
	C295.981201,1416.585449 295.978729,1436.378174 296.041138,1456.170410 
	C296.049561,1458.842285 295.278809,1460.087402 292.367706,1460.091675 
	C289.199310,1460.096191 288.966125,1458.335938 288.973663,1455.914429 
	C289.016632,1442.109863 288.993591,1428.304810 288.992981,1414.000000 
z"/>
<path fill="#F4EB91" opacity="1.000000" stroke="none" 
	d="
M301.170532,1392.981201 
	C304.765472,1392.489746 306.077362,1393.650879 306.057526,1397.032349 
	C305.942322,1416.670654 305.982849,1436.310181 306.024841,1455.949219 
	C306.030090,1458.406860 305.727905,1460.098877 302.591156,1460.095093 
	C299.635193,1460.091431 298.958832,1458.760864 298.967041,1456.127319 
	C299.028809,1436.322021 298.994751,1416.516357 299.016693,1396.710815 
	C299.018280,1395.267334 298.742584,1393.598022 301.170532,1392.981201 
z"/>
<path fill="#F4EB91" opacity="1.000000" stroke="none" 
	d="
M288.993591,492.000549 
	C288.994324,486.677307 289.045990,481.853180 288.974396,477.030884 
	C288.938171,474.591705 289.259216,472.853851 292.391632,472.841705 
	C295.334656,472.830322 296.045959,474.171326 296.038239,476.804932 
	C295.980133,496.597198 295.975586,516.389709 296.037384,536.181946 
	C296.045746,538.858337 295.267670,540.093323 292.360046,540.096375 
	C289.182098,540.099731 288.971863,538.323547 288.978546,535.910583 
	C289.018524,521.440613 288.995514,506.970490 288.993591,492.000549 
z"/>
<path fill="#F4EB91" opacity="1.000000" stroke="none" 
	d="
M306.002869,454.995148 
	C306.003754,458.820740 305.975098,462.147614 306.015320,465.473663 
	C306.044830,467.914154 306.183044,470.091766 302.573303,470.103394 
	C299.105499,470.114563 298.956207,468.199310 298.970825,465.618103 
	C299.030060,455.139832 298.997833,444.661102 298.998657,434.182526 
	C298.999359,425.367218 299.019379,416.551849 298.986755,407.736664 
	C298.977081,405.120514 298.794739,402.741486 302.682739,402.824585 
	C306.358612,402.903107 306.005341,405.248260 306.005493,407.592010 
	C306.006592,423.226715 306.004150,438.861389 306.002869,454.995148 
z"/>
<path fill="#F4EB91" opacity="1.000000" stroke="none" 
	d="
M293.830139,332.973358 
	C296.499969,333.734772 295.979675,335.645081 295.982452,337.203674 
	C296.017487,356.678192 295.985779,376.152832 296.027863,395.627319 
	C296.033447,398.210846 295.887756,400.124939 292.417328,400.107513 
	C288.794250,400.089294 288.987396,397.889282 288.989349,395.460724 
	C289.005035,376.152588 289.051575,356.844177 288.941925,337.536652 
	C288.923157,334.228333 289.708984,332.354248 293.830139,332.973358 
z"/>
<path fill="#F4EB91" opacity="1.000000" stroke="none" 
	d="
M306.002869,1500.000000 
	C306.001740,1508.982544 305.963379,1517.465454 306.022888,1525.947632 
	C306.040039,1528.394409 305.745911,1530.104004 302.599213,1530.096680 
	C299.658875,1530.089722 298.957947,1528.790771 298.966248,1526.145020 
	C299.028229,1506.352539 299.026367,1486.559570 298.964447,1466.767090 
	C298.956085,1464.091187 299.755371,1462.840698 302.652893,1462.839722 
	C305.843414,1462.838745 306.027924,1464.680420 306.019440,1467.066528 
	C305.980927,1477.877563 306.002747,1488.688843 306.002869,1500.000000 
z"/>
<path fill="#F4EB91" opacity="1.000000" stroke="none" 
	d="
M292.059326,1530.015869 
	C288.881561,1529.990967 288.997314,1528.029297 288.997101,1526.158447 
	C288.994904,1506.348511 289.024231,1486.538330 288.961761,1466.728638 
	C288.953186,1464.015991 289.822235,1462.802979 292.696136,1462.846802 
	C295.441101,1462.888428 296.033173,1464.245483 296.028564,1466.613037 
	C295.989502,1486.589478 295.977875,1506.566040 296.035339,1526.542236 
	C296.042755,1529.122070 295.053375,1530.255249 292.059326,1530.015869 
z"/>
<path fill="#F4EB91" opacity="1.000000" stroke="none" 
	d="
M306.002838,239.999664 
	C306.000854,245.821396 305.929199,251.144516 306.027496,256.464508 
	C306.073700,258.964172 305.211853,260.095673 302.578857,260.076416 
	C300.098358,260.058258 298.967072,259.257874 298.974915,256.618958 
	C299.034698,236.495895 299.032928,216.372528 298.982086,196.249435 
	C298.975311,193.561859 300.258606,192.888611 302.675507,192.859650 
	C305.414459,192.826843 306.027863,194.212662 306.020477,196.592407 
	C305.976135,210.894745 306.001099,225.197296 306.002838,239.999664 
z"/>
<path fill="#F4EB91" opacity="1.000000" stroke="none" 
	d="
M298.998779,861.000000 
	C298.998596,849.688843 298.977386,838.877686 299.014740,828.066650 
	C299.022919,825.698059 298.247467,822.927368 302.349915,822.838440 
	C306.764801,822.742737 305.987701,825.711365 305.990814,828.261841 
	C306.013580,847.056580 306.016510,865.851379 305.983582,884.646057 
	C305.979187,887.153198 306.867279,890.167236 302.403015,890.094116 
	C297.849365,890.019531 299.068512,886.840332 299.036987,884.452393 
	C298.935913,876.802795 298.999054,869.150940 298.998779,861.000000 
z"/>
<path fill="#F4EB91" opacity="1.000000" stroke="none" 
	d="
M296.012329,832.053223 
	C296.011322,849.846924 296.041687,867.148010 295.972321,884.448669 
	C295.962769,886.833069 297.163239,890.017273 292.605225,890.092102 
	C288.155823,890.165039 289.013672,887.175598 289.009827,884.654480 
	C288.981201,866.022705 288.963837,847.390869 289.028809,828.759338 
	C289.037689,826.208313 287.801483,822.759033 292.657227,822.854736 
	C297.202881,822.944275 295.739227,826.195068 295.993073,828.567932 
	C296.098633,829.554810 296.011566,830.562378 296.012329,832.053223 
z"/>
<path fill="#F4EB91" opacity="1.000000" stroke="none" 
	d="
M296.009216,908.004517 
	C296.008392,923.972168 296.024475,939.440552 295.988800,954.908813 
	C295.983398,957.263916 296.777863,960.032959 292.643829,960.104919 
	C288.710541,960.173279 288.985626,957.776184 288.988007,955.191711 
	C289.005463,936.064148 289.000488,916.936646 288.988770,897.809082 
	C288.987213,895.255066 288.665039,892.779968 292.609039,892.834473 
	C296.699493,892.891052 295.952209,895.638489 295.994537,898.024902 
	C296.050537,901.184143 296.008881,904.345032 296.009216,908.004517 
z"/>
<path fill="#F4EB91" opacity="1.000000" stroke="none" 
	d="
M306.003174,948.973022 
	C306.000732,951.796997 305.913361,954.129578 306.020050,956.453308 
	C306.134033,958.936768 305.245911,960.107178 302.592438,960.079041 
	C300.126709,960.052856 298.967804,959.283813 298.975372,956.631775 
	C299.032562,936.671875 299.030670,916.711670 298.967773,896.751770 
	C298.959320,894.068115 299.775238,892.833679 302.667877,892.839233 
	C305.865356,892.845459 306.024719,894.702759 306.020508,897.080444 
	C305.990173,914.212891 306.003906,931.345276 306.003174,948.973022 
z"/>
<path fill="#F4EB91" opacity="1.000000" stroke="none" 
	d="
M296.011475,283.000305 
	C296.010712,297.306244 296.026398,311.112305 295.993378,324.918304 
	C295.987701,327.286194 296.762634,330.035583 292.635529,330.101532 
	C288.701843,330.164337 288.981415,327.768066 288.983948,325.184387 
	C289.002594,306.055511 289.000336,286.926666 288.985382,267.797791 
	C288.983368,265.226898 288.690826,262.777313 292.619873,262.834473 
	C296.711029,262.894012 295.972961,265.641205 295.996521,268.029175 
	C296.044128,272.852478 296.011200,277.676636 296.011475,283.000305 
z"/>
<path fill="#F4EB91" opacity="1.000000" stroke="none" 
	d="
M306.002869,803.997009 
	C306.002777,808.154968 305.973969,811.814087 306.012695,815.472473 
	C306.038513,817.910889 306.183807,820.091248 302.574097,820.104492 
	C299.101501,820.117310 298.970734,818.190796 298.976318,815.615662 
	C299.018250,796.323853 299.009857,777.031921 298.986664,757.739990 
	C298.983521,755.121521 298.796844,752.752869 302.683838,752.833496 
	C306.368744,752.910095 306.000824,755.256287 306.001190,757.596436 
	C306.003693,772.896912 306.002686,788.197388 306.002869,803.997009 
z"/>
<path fill="#F4EB91" opacity="1.000000" stroke="none" 
	d="
M296.010193,973.038330 
	C296.008759,990.664185 296.022186,1007.797241 295.990417,1024.930298 
	C295.986023,1027.295288 296.753967,1030.046631 292.622009,1030.101074 
	C288.675995,1030.152954 288.983307,1027.734253 288.985474,1025.166626 
	C289.001709,1006.037476 289.002686,986.908386 288.989197,967.779236 
	C288.987396,965.204163 288.708130,962.754639 292.636749,962.828125 
	C296.273224,962.896118 296.022705,965.173950 296.009247,967.555298 
	C295.999847,969.218628 296.009583,970.882080 296.010193,973.038330 
z"/>
<path fill="#F4EB91" opacity="1.000000" stroke="none" 
	d="
M298.998779,996.000000 
	C298.999084,986.185852 299.004608,976.871643 298.996002,967.557495 
	C298.993805,965.176758 298.720734,962.876099 302.360321,962.825928 
	C305.785675,962.778687 306.035339,964.653748 306.029480,967.271973 
	C305.985840,986.731812 305.984894,1006.191956 306.029724,1025.651855 
	C306.035736,1028.255127 305.846649,1030.130493 302.394623,1030.102539 
	C298.766418,1030.072998 298.980591,1027.855713 298.986115,1025.440552 
	C299.008118,1015.793701 298.997375,1006.146851 298.998779,996.000000 
z"/>
<path fill="#F4EB91" opacity="1.000000" stroke="none" 
	d="
M296.009460,763.038086 
	C296.009949,780.663940 296.022522,797.796936 295.996979,814.929932 
	C295.993408,817.315247 296.713623,820.040100 292.610687,820.100586 
	C288.656616,820.158813 288.983124,817.718994 288.985016,815.157837 
	C288.999237,796.028748 289.000854,776.899719 288.983337,757.770630 
	C288.980957,755.180725 288.734558,752.760132 292.647339,752.830688 
	C296.291473,752.896423 296.029358,755.174866 296.012268,757.554993 
	C296.000366,759.218323 296.009613,760.881836 296.009460,763.038086 
z"/>
<path fill="#F4EB91" opacity="1.000000" stroke="none" 
	d="
M296.010223,1072.000000 
	C296.008423,1080.317139 295.965637,1088.134644 296.028290,1095.951172 
	C296.047974,1098.409302 295.717865,1100.095459 292.590637,1100.097412 
	C289.639191,1100.099243 288.957916,1098.779175 288.966064,1096.141113 
	C289.027161,1076.348999 289.024811,1056.556396 288.963593,1036.764282 
	C288.955322,1034.087402 289.761169,1032.838379 292.658417,1032.843018 
	C295.841675,1032.848267 296.033112,1034.680176 296.025055,1037.071289 
	C295.986389,1048.547363 296.009064,1060.023804 296.010223,1072.000000 
z"/>
<path fill="#F4EB91" opacity="1.000000" stroke="none" 
	d="
M298.998291,1086.988525 
	C298.999542,1070.191040 299.002441,1053.891724 298.999908,1037.592529 
	C298.999542,1035.232178 298.669556,1032.921021 302.329742,1032.835449 
	C306.237885,1032.744141 306.014435,1035.142578 306.011658,1037.747681 
	C305.991302,1056.874390 305.997162,1076.000977 306.008270,1095.127686 
	C306.009735,1097.664185 306.396576,1100.142334 302.421509,1100.107056 
	C298.325256,1100.070801 299.049469,1097.373291 299.008911,1094.971069 
	C298.966827,1092.476929 298.998688,1089.981567 298.998291,1086.988525 
z"/>
<path fill="#F4EB91" opacity="1.000000" stroke="none" 
	d="
M298.999268,594.995483 
	C298.999023,578.861633 298.999146,563.227051 298.999176,547.592468 
	C298.999176,545.241272 298.661041,542.915222 302.325653,542.826843 
	C306.233826,542.732727 306.015594,545.134460 306.013031,547.737732 
	C305.993988,567.031433 305.985077,586.325256 306.025452,605.618835 
	C306.030792,608.186584 305.917938,610.129089 302.430420,610.106079 
	C298.832306,610.082275 298.955231,607.920593 298.987274,605.474121 
	C299.030884,602.148193 298.999084,598.821228 298.999268,594.995483 
z"/>
<path fill="#F4EB91" opacity="1.000000" stroke="none" 
	d="
M298.998352,318.973938 
	C298.998352,301.677979 298.983154,284.878235 299.015594,268.078552 
	C299.020142,265.718353 298.228760,262.935181 302.338257,262.838684 
	C306.747803,262.735138 305.988983,265.692261 305.991791,268.250732 
	C306.012665,287.212799 305.997772,306.174896 306.005981,325.136963 
	C306.007080,327.672089 306.392059,330.152161 302.410919,330.105194 
	C298.312622,330.056854 299.059021,327.358429 299.007050,324.959045 
	C298.967438,323.130219 298.998627,321.299866 298.998352,318.973938 
z"/>
<path fill="#F4EB91" opacity="1.000000" stroke="none" 
	d="
M299.002411,742.894897 
	C299.001526,724.441528 298.972046,706.474426 299.032745,688.507629 
	C299.040863,686.102295 297.882751,682.917603 302.403320,682.843201 
	C306.839264,682.770264 305.983795,685.801758 305.988037,688.319397 
	C306.019073,706.619141 306.080841,724.919556 305.913208,743.217773 
	C305.889618,745.792725 308.049896,750.160889 302.334564,750.029602 
	C297.010345,749.907227 299.679077,745.813477 299.002411,742.894897 
z"/>
<path fill="#F4EB91" opacity="1.000000" stroke="none" 
	d="
M288.992981,235.000000 
	C288.993011,222.192078 288.995178,209.884171 288.991364,197.576248 
	C288.990631,195.209885 288.686279,192.909668 292.339142,192.831146 
	C296.242676,192.747238 296.024109,195.144302 296.021362,197.747910 
	C296.001190,216.875046 296.005859,236.002243 296.016357,255.129410 
	C296.017761,257.674835 296.369751,260.138031 292.410004,260.101471 
	C288.310913,260.063599 289.017365,257.358765 289.004547,254.959763 
	C288.969910,248.473343 288.992859,241.986603 288.992981,235.000000 
z"/>
<path fill="#F4EB91" opacity="1.000000" stroke="none" 
	d="
M295.808899,748.506226 
	C290.165100,751.112122 289.012177,750.487915 289.004761,745.113037 
	C288.978333,725.970825 289.010742,706.828613 288.980621,687.686401 
	C288.976410,685.021667 288.877472,682.720764 292.735413,682.833801 
	C296.441223,682.942261 296.005371,685.339722 296.002960,687.650330 
	C295.981995,707.790466 295.948639,727.930603 295.808899,748.506226 
z"/>
<path fill="#F4EB91" opacity="1.000000" stroke="none" 
	d="
M288.992981,1209.000000 
	C288.992767,1201.513672 289.000946,1194.527466 288.987671,1187.541138 
	C288.983124,1185.149902 288.735596,1182.869263 292.370148,1182.828857 
	C295.796387,1182.791016 296.038483,1184.665283 296.032684,1187.280640 
	C295.989532,1206.742432 295.987762,1226.204224 296.036713,1245.665894 
	C296.043335,1248.290894 295.807831,1250.124756 292.380554,1250.101318 
	C288.734680,1250.076416 288.982788,1247.829102 288.985657,1245.429443 
	C289.000092,1233.453003 288.992706,1221.476440 288.992981,1209.000000 
z"/>
<path fill="#F4EB91" opacity="1.000000" stroke="none" 
	d="
M298.998657,1191.076538 
	C299.003723,1189.092163 299.064453,1187.592773 299.001129,1186.098389 
	C298.900970,1183.733521 300.049042,1182.895996 302.325470,1182.860229 
	C304.761536,1182.821899 306.046997,1183.559937 306.019135,1186.240845 
	C305.941284,1193.725830 306.000977,1201.212402 306.002350,1208.698242 
	C306.004608,1220.842041 305.998138,1232.985840 306.008575,1245.129639 
	C306.010742,1247.660645 306.405426,1250.150635 302.419098,1250.104980 
	C298.329224,1250.058105 299.010803,1247.369751 299.008270,1244.963135 
	C298.989471,1227.163330 298.998413,1209.363525 298.998657,1191.076538 
z"/>
<path fill="#F4EB91" opacity="1.000000" stroke="none" 
	d="
M305.411621,613.706177 
	C305.794434,635.016174 305.877838,655.976685 306.011688,676.936890 
	C306.027344,679.386597 304.815979,680.032410 302.604980,680.063782 
	C300.144409,680.098694 298.961761,679.308899 298.970001,676.642151 
	C299.032288,656.503784 298.971832,636.365051 299.037659,616.226685 
	C299.053650,611.336060 302.475220,613.006042 305.411621,613.706177 
z"/>
<path fill="#F4EB91" opacity="1.000000" stroke="none" 
	d="
M288.992981,655.000000 
	C288.992859,642.358521 288.969910,630.217041 289.012543,618.075684 
	C289.020813,615.723816 288.222321,612.921997 292.338837,612.835693 
	C296.248047,612.753723 296.018555,615.169861 296.016327,617.762146 
	C295.999878,637.055420 295.986237,656.348755 296.031860,675.641907 
	C296.038025,678.241272 295.859802,680.122498 292.408020,680.103455 
	C288.789398,680.083435 288.972839,677.887085 288.983490,675.458496 
	C289.012665,668.805786 288.993195,662.152832 288.992981,655.000000 
z"/>
<path fill="#F4EB91" opacity="1.000000" stroke="none" 
	d="
M288.992981,1290.000000 
	C288.992889,1279.021729 288.968109,1268.543457 289.011627,1258.065430 
	C289.021393,1255.706421 288.238342,1252.916870 292.349365,1252.838867 
	C296.750458,1252.755493 295.991699,1255.718872 295.994904,1258.271484 
	C296.018860,1277.232056 296.000610,1296.192749 296.015167,1315.153320 
	C296.017151,1317.713257 296.350189,1320.149414 292.396973,1320.102417 
	C288.290741,1320.053467 289.016144,1317.340820 289.006409,1314.949219 
	C288.973267,1306.799561 288.993256,1298.649780 288.992981,1290.000000 
z"/>
<path fill="#F4EB91" opacity="1.000000" stroke="none" 
	d="
M306.003296,1310.944092 
	C306.003906,1312.932129 305.950134,1314.431641 306.016998,1315.925659 
	C306.125671,1318.352905 305.787506,1320.103149 302.619904,1320.092529 
	C299.702881,1320.082642 298.952118,1318.831177 298.961090,1316.162109 
	C299.027588,1296.367554 299.026886,1276.572510 298.969574,1256.777954 
	C298.961884,1254.117920 299.729858,1252.833130 302.643860,1252.837036 
	C305.819061,1252.841309 306.026794,1254.657593 306.022308,1257.056885 
	C305.989075,1274.855591 306.003571,1292.654297 306.003296,1310.944092 
z"/>
</svg>